<?xml version="1.0" encoding="UTF-8"?>
<svg xmlns="http://www.w3.org/2000/svg" xmlns:xlink="http://www.w3.org/1999/xlink" width="195.740005pt" height="90.459999pt" viewBox="0 0 195.740005 90.459999" version="1.1">
<defs>
<clipPath id="clip1">
  <path d="M 0.0078125 0.0117188 L 195.699219 0.0117188 L 195.699219 90.449219 L 0.0078125 90.449219 Z M 0.0078125 0.0117188 "/>
</clipPath>
<clipPath id="clip3">
  <path d="M 0.0078125 0.0117188 L 195.699219 0.0117188 L 195.699219 90.449219 L 0.0078125 90.449219 Z M 0.0078125 0.0117188 "/>
</clipPath>
<clipPath id="clip2">
  <rect width="196" height="91"/>
</clipPath>
<g id="surface5" clip-path="url(#clip2)">
<g clip-path="url(#clip3)" clip-rule="nonzero">
<path style=" stroke:none;fill-rule:nonzero;fill:rgb(0%,0%,0%);fill-opacity:1;" d="M 122.328125 70.1875 L 100.953125 70.1875 L 75.550781 42.863281 L 75.550781 27.257812 L 100.179688 0.0117188 L 122.175781 0.0117188 L 93.828125 35.332031 L 122.328125 70.1875 "/>
<path style=" stroke:none;fill-rule:nonzero;fill:rgb(0%,0%,0%);fill-opacity:1;" d="M 125.574219 0.0664062 L 144.78125 0.0664062 L 144.78125 70.175781 L 125.574219 70.175781 Z M 125.574219 0.0664062 "/>
<path style=" stroke:none;fill-rule:nonzero;fill:rgb(0%,0%,0%);fill-opacity:1;" d="M 195.738281 0.0625 L 149.425781 0.0625 L 149.425781 15.890625 L 162.980469 15.890625 L 162.980469 70.242188 L 182.1875 70.242188 L 182.1875 15.890625 L 195.738281 15.890625 L 195.738281 0.0625 "/>
<path style=" stroke:none;fill-rule:nonzero;fill:rgb(0%,0%,0%);fill-opacity:1;" d="M 70.960938 70.179688 L 70.949219 70.15625 L 70.949219 70.167969 L 70.960938 70.179688 "/>
<path style=" stroke:none;fill-rule:nonzero;fill:rgb(0%,0%,0%);fill-opacity:1;" d="M 16.128906 25.71875 C 12.453125 30.167969 9.320312 35.082031 6.816406 40.347656 L 70.949219 70.1875 L 16.128906 25.71875 "/>
<path style=" stroke:none;fill-rule:nonzero;fill:rgb(0%,0%,0%);fill-opacity:1;" d="M 70.941406 70.15625 L 41.019531 6.566406 C 35.738281 9 30.808594 12.0625 26.332031 15.664062 L 70.949219 70.179688 L 70.941406 70.15625 "/>
<path style=" stroke:none;fill-rule:nonzero;fill:rgb(0%,0%,0%);fill-opacity:1;" d="M 70.949219 70.164062 L 70.949219 70.167969 L 70.949219 70.15625 L 70.941406 70.140625 L 70.949219 70.164062 "/>
<path style=" stroke:none;fill-rule:nonzero;fill:rgb(0%,0%,0%);fill-opacity:1;" d="M 70.949219 70.164062 L 70.949219 70.167969 L 70.949219 70.15625 L 70.941406 70.140625 L 70.949219 70.164062 "/>
<path style=" stroke:none;fill-rule:nonzero;fill:rgb(0%,0%,0%);fill-opacity:1;" d="M 2.226562 53.007812 C 0.816406 58.503906 0.0625 64.257812 0.03125 70.1875 L 70.925781 70.1875 L 2.226562 53.007812 "/>
<path style=" stroke:none;fill-rule:nonzero;fill:rgb(0%,0%,0%);fill-opacity:1;" d="M 70.953125 70.171875 L 70.984375 0.128906 C 70.804688 0.128906 70.632812 0.117188 70.453125 0.117188 C 64.746094 0.117188 59.199219 0.8125 53.886719 2.097656 L 70.941406 70.15625 L 70.953125 70.171875 "/>
<path style=" stroke:none;fill-rule:nonzero;fill:rgb(0%,0%,0%);fill-opacity:1;" d="M 0.0078125 78.667969 L 1.289062 78.667969 L 1.289062 82.597656 L 5.105469 78.667969 L 6.808594 78.667969 L 2.609375 82.894531 L 7.140625 87.609375 L 5.273438 87.609375 L 1.289062 83.226562 L 1.289062 87.609375 L 0.0078125 87.609375 L 0.0078125 78.667969 "/>
<path style=" stroke:none;fill-rule:nonzero;fill:rgb(0%,0%,0%);fill-opacity:1;" d="M 12.136719 84.496094 C 11.878906 84.496094 11.625 84.46875 11.367188 84.46875 C 10.714844 84.46875 9.101562 84.574219 9.101562 85.726562 C 9.101562 86.414062 9.765625 86.789062 10.320312 86.789062 C 11.507812 86.789062 12.136719 86.042969 12.136719 85.070312 Z M 8.5625 81.539062 C 9.164062 81.179688 9.882812 80.921875 10.714844 80.921875 C 12.585938 80.921875 13.339844 81.84375 13.339844 83.625 L 13.339844 86.328125 C 13.339844 87.070312 13.367188 87.414062 13.390625 87.609375 L 12.265625 87.609375 L 12.265625 86.761719 L 12.238281 86.761719 C 11.957031 87.160156 11.316406 87.761719 10.214844 87.761719 C 8.808594 87.761719 7.820312 87.148438 7.820312 85.726562 C 7.820312 84.085938 9.613281 83.574219 10.855469 83.574219 C 11.328125 83.574219 11.664062 83.574219 12.136719 83.597656 C 12.136719 82.472656 11.726562 81.894531 10.523438 81.894531 C 9.84375 81.894531 9.113281 82.152344 8.628906 82.5625 L 8.5625 81.539062 "/>
<path style=" stroke:none;fill-rule:nonzero;fill:rgb(0%,0%,0%);fill-opacity:1;" d="M 15.289062 81.074219 L 16.417969 81.074219 L 16.417969 82.089844 L 16.441406 82.089844 C 16.761719 81.410156 17.453125 80.921875 18.148438 80.921875 C 18.503906 80.921875 18.683594 80.960938 18.941406 81.011719 L 18.941406 82.089844 C 18.722656 82 18.480469 81.972656 18.273438 81.972656 C 17.199219 81.972656 16.492188 82.996094 16.492188 84.636719 L 16.492188 87.609375 L 15.289062 87.609375 L 15.289062 81.074219 "/>
<path style=" stroke:none;fill-rule:nonzero;fill:rgb(0%,0%,0%);fill-opacity:1;" d="M 20.273438 78.003906 L 21.476562 78.003906 L 21.476562 87.609375 L 20.273438 87.609375 Z M 20.273438 78.003906 "/>
<path style=" stroke:none;fill-rule:nonzero;fill:rgb(0%,0%,0%);fill-opacity:1;" d="M 23.210938 86.328125 C 23.683594 86.632812 24.363281 86.789062 24.710938 86.789062 C 25.261719 86.789062 25.9375 86.558594 25.9375 85.855469 C 25.9375 84.664062 23.109375 84.765625 23.109375 82.933594 C 23.109375 81.574219 24.121094 80.921875 25.414062 80.921875 C 25.976562 80.921875 26.4375 81.039062 26.914062 81.179688 L 26.808594 82.226562 C 26.539062 82.0625 25.824219 81.894531 25.542969 81.894531 C 24.925781 81.894531 24.390625 82.152344 24.390625 82.691406 C 24.390625 84.019531 27.21875 83.636719 27.21875 85.726562 C 27.21875 87.121094 26.105469 87.761719 24.941406 87.761719 C 24.324219 87.761719 23.699219 87.699219 23.148438 87.402344 L 23.210938 86.328125 "/>
<path style=" stroke:none;fill-rule:nonzero;fill:rgb(0%,0%,0%);fill-opacity:1;" d="M 28.679688 81.074219 L 29.804688 81.074219 L 29.804688 82.089844 L 29.832031 82.089844 C 30.152344 81.410156 30.84375 80.921875 31.535156 80.921875 C 31.894531 80.921875 32.074219 80.960938 32.328125 81.011719 L 32.328125 82.089844 C 32.113281 82 31.867188 81.972656 31.664062 81.972656 C 30.589844 81.972656 29.882812 82.996094 29.882812 84.636719 L 29.882812 87.609375 L 28.679688 87.609375 L 28.679688 81.074219 "/>
<path style=" stroke:none;fill-rule:nonzero;fill:rgb(0%,0%,0%);fill-opacity:1;" d="M 39.359375 87.609375 L 38.195312 87.609375 L 38.195312 86.570312 L 38.167969 86.570312 C 37.808594 87.3125 36.941406 87.761719 36.03125 87.761719 C 34.339844 87.761719 33.585938 86.710938 33.585938 84.957031 L 33.585938 81.074219 L 34.789062 81.074219 L 34.789062 84.457031 C 34.789062 85.980469 35.121094 86.722656 36.171875 86.789062 C 37.542969 86.789062 38.15625 85.6875 38.15625 84.097656 L 38.15625 81.074219 L 39.359375 81.074219 L 39.359375 87.609375 "/>
<path style=" stroke:none;fill-rule:nonzero;fill:rgb(0%,0%,0%);fill-opacity:1;" d="M 41.34375 78.003906 L 42.546875 78.003906 L 42.546875 82.011719 L 42.574219 82.011719 C 43.007812 81.320312 43.761719 80.921875 44.671875 80.921875 C 46.363281 80.921875 47.117188 81.972656 47.117188 83.726562 L 47.117188 87.609375 L 45.914062 87.609375 L 45.914062 84.226562 C 45.914062 82.703125 45.582031 81.960938 44.53125 81.894531 C 43.160156 81.894531 42.546875 82.996094 42.546875 84.585938 L 42.546875 87.609375 L 41.34375 87.609375 L 41.34375 78.003906 "/>
<path style=" stroke:none;fill-rule:nonzero;fill:rgb(0%,0%,0%);fill-opacity:1;" d="M 53.359375 83.714844 C 53.359375 82.714844 52.773438 81.894531 51.734375 81.894531 C 50.554688 81.894531 50.070312 82.867188 49.980469 83.714844 Z M 54.140625 87.339844 C 53.679688 87.503906 53.15625 87.761719 52.082031 87.761719 C 49.761719 87.761719 48.699219 86.351562 48.699219 84.226562 C 48.699219 82.292969 49.914062 80.921875 51.757812 80.921875 C 53.9375 80.921875 54.640625 82.511719 54.640625 84.613281 L 49.980469 84.613281 C 49.980469 85.90625 50.992188 86.789062 52.132812 86.789062 C 52.925781 86.789062 53.847656 86.378906 54.140625 86.136719 L 54.140625 87.339844 "/>
<path style=" stroke:none;fill-rule:nonzero;fill:rgb(0%,0%,0%);fill-opacity:1;" d="M 59.929688 78.667969 L 61.210938 78.667969 L 61.210938 87.609375 L 59.929688 87.609375 Z M 59.929688 78.667969 "/>
<path style=" stroke:none;fill-rule:nonzero;fill:rgb(0%,0%,0%);fill-opacity:1;" d="M 63.324219 81.074219 L 64.488281 81.074219 L 64.488281 82.113281 L 64.515625 82.113281 C 64.875 81.371094 65.742188 80.921875 66.652344 80.921875 C 68.34375 80.921875 69.097656 81.972656 69.097656 83.726562 L 69.097656 87.609375 L 67.894531 87.609375 L 67.894531 84.226562 C 67.894531 82.703125 67.5625 81.960938 66.511719 81.894531 C 65.140625 81.894531 64.527344 82.996094 64.527344 84.585938 L 64.527344 87.609375 L 63.324219 87.609375 L 63.324219 81.074219 "/>
<path style=" stroke:none;fill-rule:nonzero;fill:rgb(0%,0%,0%);fill-opacity:1;" d="M 70.707031 86.328125 C 71.179688 86.632812 71.855469 86.789062 72.203125 86.789062 C 72.753906 86.789062 73.433594 86.558594 73.433594 85.855469 C 73.433594 84.664062 70.601562 84.765625 70.601562 82.933594 C 70.601562 81.574219 71.613281 80.921875 72.90625 80.921875 C 73.472656 80.921875 73.933594 81.039062 74.40625 81.179688 L 74.304688 82.226562 C 74.035156 82.0625 73.316406 81.894531 73.035156 81.894531 C 72.421875 81.894531 71.882812 82.152344 71.882812 82.691406 C 71.882812 84.019531 74.714844 83.636719 74.714844 85.726562 C 74.714844 87.121094 73.597656 87.761719 72.433594 87.761719 C 71.820312 87.761719 71.191406 87.699219 70.640625 87.402344 L 70.707031 86.328125 "/>
<path style=" stroke:none;fill-rule:nonzero;fill:rgb(0%,0%,0%);fill-opacity:1;" d="M 79.816406 82.050781 L 78.089844 82.050781 L 78.089844 85.621094 C 78.089844 86.378906 78.546875 86.789062 79.097656 86.789062 C 79.472656 86.789062 79.738281 86.671875 79.917969 86.558594 L 79.917969 87.582031 C 79.652344 87.660156 79.28125 87.761719 78.894531 87.761719 C 77.652344 87.761719 76.882812 87.171875 76.882812 85.867188 L 76.882812 82.050781 L 75.410156 82.050781 L 75.410156 81.074219 L 76.882812 81.074219 L 76.882812 79.566406 L 78.089844 79.179688 L 78.089844 81.074219 L 79.816406 81.074219 L 79.816406 82.050781 "/>
<path style=" stroke:none;fill-rule:nonzero;fill:rgb(0%,0%,0%);fill-opacity:1;" d="M 81.289062 81.074219 L 82.492188 81.074219 L 82.492188 87.609375 L 81.289062 87.609375 Z M 82.570312 79.617188 L 81.214844 79.617188 L 81.214844 78.257812 L 82.570312 78.257812 L 82.570312 79.617188 "/>
<path style=" stroke:none;fill-rule:nonzero;fill:rgb(0%,0%,0%);fill-opacity:1;" d="M 88.121094 82.050781 L 86.394531 82.050781 L 86.394531 85.621094 C 86.394531 86.378906 86.855469 86.789062 87.40625 86.789062 C 87.777344 86.789062 88.042969 86.671875 88.222656 86.558594 L 88.222656 87.582031 C 87.957031 87.660156 87.585938 87.761719 87.199219 87.761719 C 85.957031 87.761719 85.1875 87.171875 85.1875 85.867188 L 85.1875 82.050781 L 83.714844 82.050781 L 83.714844 81.074219 L 85.1875 81.074219 L 85.1875 79.566406 L 86.394531 79.179688 L 86.394531 81.074219 L 88.121094 81.074219 L 88.121094 82.050781 "/>
<path style=" stroke:none;fill-rule:nonzero;fill:rgb(0%,0%,0%);fill-opacity:1;" d="M 95.242188 87.609375 L 94.078125 87.609375 L 94.078125 86.570312 L 94.050781 86.570312 C 93.691406 87.3125 92.820312 87.761719 91.914062 87.761719 C 90.222656 87.761719 89.464844 86.710938 89.464844 84.957031 L 89.464844 81.074219 L 90.671875 81.074219 L 90.671875 84.457031 C 90.671875 85.980469 91.003906 86.722656 92.054688 86.789062 C 93.421875 86.789062 94.039062 85.6875 94.039062 84.097656 L 94.039062 81.074219 L 95.242188 81.074219 L 95.242188 87.609375 "/>
<path style=" stroke:none;fill-rule:nonzero;fill:rgb(0%,0%,0%);fill-opacity:1;" d="M 100.792969 82.050781 L 99.066406 82.050781 L 99.066406 85.621094 C 99.066406 86.378906 99.527344 86.789062 100.078125 86.789062 C 100.449219 86.789062 100.71875 86.671875 100.898438 86.558594 L 100.898438 87.582031 C 100.628906 87.660156 100.257812 87.761719 99.871094 87.761719 C 98.628906 87.761719 97.859375 87.171875 97.859375 85.867188 L 97.859375 82.050781 L 96.390625 82.050781 L 96.390625 81.074219 L 97.859375 81.074219 L 97.859375 79.566406 L 99.066406 79.179688 L 99.066406 81.074219 L 100.792969 81.074219 L 100.792969 82.050781 "/>
<path style=" stroke:none;fill-rule:nonzero;fill:rgb(0%,0%,0%);fill-opacity:1;" d="M 106.390625 83.714844 C 106.390625 82.714844 105.800781 81.894531 104.765625 81.894531 C 103.585938 81.894531 103.097656 82.867188 103.007812 83.714844 Z M 107.171875 87.339844 C 106.707031 87.503906 106.1875 87.761719 105.109375 87.761719 C 102.789062 87.761719 101.726562 86.351562 101.726562 84.226562 C 101.726562 82.292969 102.945312 80.921875 104.785156 80.921875 C 106.964844 80.921875 107.671875 82.511719 107.671875 84.613281 L 103.007812 84.613281 C 103.007812 85.90625 104.019531 86.789062 105.160156 86.789062 C 105.953125 86.789062 106.878906 86.378906 107.171875 86.136719 L 107.171875 87.339844 "/>
<path style=" stroke:none;fill-rule:nonzero;fill:rgb(0%,0%,0%);fill-opacity:1;" d="M 115.738281 86.789062 C 117.148438 86.789062 117.773438 85.507812 117.773438 84.34375 C 117.773438 83.101562 117.019531 81.894531 115.738281 81.894531 C 114.445312 81.894531 113.691406 83.101562 113.691406 84.34375 C 113.691406 85.507812 114.316406 86.789062 115.738281 86.789062 Z M 115.738281 80.921875 C 117.722656 80.921875 119.054688 82.355469 119.054688 84.34375 C 119.054688 86.210938 117.695312 87.761719 115.738281 87.761719 C 113.765625 87.761719 112.40625 86.210938 112.40625 84.34375 C 112.40625 82.355469 113.738281 80.921875 115.738281 80.921875 "/>
<path style=" stroke:none;fill-rule:nonzero;fill:rgb(0%,0%,0%);fill-opacity:1;" d="M 121.296875 82.050781 L 119.761719 82.050781 L 119.761719 81.074219 L 121.296875 81.074219 L 121.296875 80.476562 C 121.296875 78.886719 121.707031 77.847656 123.484375 77.847656 C 123.792969 77.847656 124.050781 77.886719 124.292969 77.925781 L 124.242188 78.898438 C 124.101562 78.847656 123.871094 78.824219 123.664062 78.824219 C 122.628906 78.824219 122.5 79.488281 122.5 80.371094 L 122.5 81.074219 L 124.230469 81.074219 L 124.230469 82.050781 L 122.5 82.050781 L 122.5 87.609375 L 121.296875 87.609375 L 121.296875 82.050781 "/>
<path style=" stroke:none;fill-rule:nonzero;fill:rgb(0%,0%,0%);fill-opacity:1;" d="M 130.953125 79.796875 L 128.175781 79.796875 L 128.175781 78.667969 L 135.011719 78.667969 L 135.011719 79.796875 L 132.234375 79.796875 L 132.234375 87.609375 L 130.953125 87.609375 L 130.953125 79.796875 "/>
<path style=" stroke:none;fill-rule:nonzero;fill:rgb(0%,0%,0%);fill-opacity:1;" d="M 139.46875 83.714844 C 139.46875 82.714844 138.882812 81.894531 137.84375 81.894531 C 136.664062 81.894531 136.179688 82.867188 136.089844 83.714844 Z M 140.25 87.339844 C 139.789062 87.503906 139.265625 87.761719 138.191406 87.761719 C 135.871094 87.761719 134.808594 86.351562 134.808594 84.226562 C 134.808594 82.292969 136.027344 80.921875 137.871094 80.921875 C 140.046875 80.921875 140.75 82.511719 140.75 84.613281 L 136.089844 84.613281 C 136.089844 85.90625 137.101562 86.789062 138.238281 86.789062 C 139.035156 86.789062 139.957031 86.378906 140.25 86.136719 L 140.25 87.339844 "/>
<path style=" stroke:none;fill-rule:nonzero;fill:rgb(0%,0%,0%);fill-opacity:1;" d="M 146.566406 82.175781 C 146.105469 81.984375 145.644531 81.894531 145.261719 81.894531 C 143.914062 81.894531 143.160156 83.101562 143.160156 84.34375 C 143.160156 85.507812 143.785156 86.789062 145.335938 86.789062 C 145.746094 86.789062 146.257812 86.660156 146.632812 86.414062 L 146.722656 87.492188 C 146.222656 87.722656 145.644531 87.761719 145.210938 87.761719 C 143.234375 87.761719 141.878906 86.210938 141.878906 84.34375 C 141.878906 82.355469 143.210938 80.921875 145.210938 80.921875 C 145.695312 80.921875 146.324219 81.039062 146.667969 81.179688 L 146.566406 82.175781 "/>
<path style=" stroke:none;fill-rule:nonzero;fill:rgb(0%,0%,0%);fill-opacity:1;" d="M 148 78.003906 L 149.203125 78.003906 L 149.203125 82.011719 L 149.230469 82.011719 C 149.664062 81.320312 150.421875 80.921875 151.328125 80.921875 C 153.019531 80.921875 153.777344 81.972656 153.777344 83.726562 L 153.777344 87.609375 L 152.570312 87.609375 L 152.570312 84.226562 C 152.570312 82.703125 152.238281 81.960938 151.191406 81.894531 C 149.820312 81.894531 149.203125 82.996094 149.203125 84.585938 L 149.203125 87.609375 L 148 87.609375 L 148 78.003906 "/>
<path style=" stroke:none;fill-rule:nonzero;fill:rgb(0%,0%,0%);fill-opacity:1;" d="M 155.742188 81.074219 L 156.910156 81.074219 L 156.910156 82.113281 L 156.933594 82.113281 C 157.292969 81.371094 158.164062 80.921875 159.070312 80.921875 C 160.761719 80.921875 161.519531 81.972656 161.519531 83.726562 L 161.519531 87.609375 L 160.316406 87.609375 L 160.316406 84.226562 C 160.316406 82.703125 159.980469 81.960938 158.933594 81.894531 C 157.5625 81.894531 156.945312 82.996094 156.945312 84.585938 L 156.945312 87.609375 L 155.742188 87.609375 L 155.742188 81.074219 "/>
<path style=" stroke:none;fill-rule:nonzero;fill:rgb(0%,0%,0%);fill-opacity:1;" d="M 166.40625 86.789062 C 167.816406 86.789062 168.441406 85.507812 168.441406 84.34375 C 168.441406 83.101562 167.6875 81.894531 166.40625 81.894531 C 165.113281 81.894531 164.359375 83.101562 164.359375 84.34375 C 164.359375 85.507812 164.984375 86.789062 166.40625 86.789062 Z M 166.40625 80.921875 C 168.390625 80.921875 169.722656 82.355469 169.722656 84.34375 C 169.722656 86.210938 168.367188 87.761719 166.40625 87.761719 C 164.433594 87.761719 163.078125 86.210938 163.078125 84.34375 C 163.078125 82.355469 164.40625 80.921875 166.40625 80.921875 "/>
<path style=" stroke:none;fill-rule:nonzero;fill:rgb(0%,0%,0%);fill-opacity:1;" d="M 171.394531 78.003906 L 172.597656 78.003906 L 172.597656 87.609375 L 171.394531 87.609375 Z M 171.394531 78.003906 "/>
<path style=" stroke:none;fill-rule:nonzero;fill:rgb(0%,0%,0%);fill-opacity:1;" d="M 177.597656 86.789062 C 179.007812 86.789062 179.636719 85.507812 179.636719 84.34375 C 179.636719 83.101562 178.878906 81.894531 177.597656 81.894531 C 176.304688 81.894531 175.550781 83.101562 175.550781 84.34375 C 175.550781 85.507812 176.175781 86.789062 177.597656 86.789062 Z M 177.597656 80.921875 C 179.585938 80.921875 180.914062 82.355469 180.914062 84.34375 C 180.914062 86.210938 179.558594 87.761719 177.597656 87.761719 C 175.628906 87.761719 174.269531 86.210938 174.269531 84.34375 C 174.269531 82.355469 175.601562 80.921875 177.597656 80.921875 "/>
<path style=" stroke:none;fill-rule:nonzero;fill:rgb(0%,0%,0%);fill-opacity:1;" d="M 187.132812 84.417969 C 187.132812 83.0625 186.503906 81.894531 185.222656 81.894531 C 184.007812 81.894531 183.40625 83.214844 183.40625 84.328125 C 183.40625 85.558594 184.097656 86.632812 185.222656 86.632812 C 186.351562 86.632812 187.132812 85.636719 187.132812 84.417969 Z M 188.335938 87.328125 C 188.335938 89.308594 187.3125 90.449219 184.96875 90.449219 C 184.277344 90.449219 183.675781 90.359375 182.621094 90.003906 L 182.753906 88.886719 C 183.675781 89.308594 184.226562 89.476562 185.109375 89.476562 C 186.378906 89.476562 187.132812 88.621094 187.132812 87.238281 L 187.132812 86.59375 L 187.105469 86.59375 C 186.59375 87.277344 185.746094 87.609375 184.914062 87.609375 C 183.046875 87.609375 182.125 86.085938 182.125 84.394531 C 182.125 82.714844 183.074219 80.921875 185.046875 80.921875 C 186.195312 80.921875 186.835938 81.34375 187.195312 82.050781 L 187.222656 82.050781 L 187.222656 81.074219 L 188.335938 81.074219 L 188.335938 87.328125 "/>
<path style=" stroke:none;fill-rule:nonzero;fill:rgb(0%,0%,0%);fill-opacity:1;" d="M 189.929688 89.375 C 190.082031 89.425781 190.285156 89.476562 190.492188 89.476562 C 191.566406 89.476562 191.925781 87.992188 191.925781 87.863281 C 191.925781 87.722656 191.773438 87.390625 191.695312 87.171875 L 189.480469 81.074219 L 190.800781 81.074219 L 192.554688 86.480469 L 192.578125 86.480469 L 194.371094 81.074219 L 195.589844 81.074219 L 193.183594 87.75 C 192.734375 89.003906 192.257812 90.449219 190.671875 90.449219 C 190.285156 90.449219 190.070312 90.398438 189.851562 90.359375 L 189.929688 89.375 "/>
</g>
</g>
</defs>
<g id="surface1">
<g clip-path="url(#clip1)" clip-rule="nonzero">
<use xlink:href="#surface5"/>
</g>
</g>
</svg>
