<?xml version="1.0" encoding="UTF-8" standalone="no"?>
<svg
   xmlns:dc="http://purl.org/dc/elements/1.1/"
   xmlns:cc="http://creativecommons.org/ns#"
   xmlns:rdf="http://www.w3.org/1999/02/22-rdf-syntax-ns#"
   xmlns:svg="http://www.w3.org/2000/svg"
   xmlns="http://www.w3.org/2000/svg"
   xmlns:sodipodi="http://sodipodi.sourceforge.net/DTD/sodipodi-0.dtd"
   xmlns:inkscape="http://www.inkscape.org/namespaces/inkscape"
   width="196.180008pt"
   height="90.32pt"
   viewBox="0 0 196.180008 90.32"
   version="1.1"
   id="svg2"
   inkscape:version="0.48.3.1 r9886"
   sodipodi:docname="kit_logo_de_4c_positiv.svg">
  <metadata
     id="metadata83">
    <rdf:RDF>
      <cc:Work
         rdf:about="">
        <dc:format>image/svg+xml</dc:format>
        <dc:type
           rdf:resource="http://purl.org/dc/dcmitype/StillImage" />
        <dc:title />
      </cc:Work>
    </rdf:RDF>
  </metadata>
  <defs
     id="defs81" />
  <sodipodi:namedview
     pagecolor="#ffffff"
     bordercolor="#666666"
     borderopacity="1"
     objecttolerance="10"
     gridtolerance="10"
     guidetolerance="10"
     inkscape:pageopacity="0"
     inkscape:pageshadow="2"
     inkscape:window-width="1676"
     inkscape:window-height="1027"
     id="namedview79"
     showgrid="false"
     inkscape:zoom="3.7831545"
     inkscape:cx="132.65767"
     inkscape:cy="56.45"
     inkscape:window-x="0"
     inkscape:window-y="19"
     inkscape:window-maximized="0"
     inkscape:current-layer="svg2" />
  <g
     id="g3843">
    <path
       style="fill:#000000;fill-opacity:1;fill-rule:evenodd;stroke:none"
       d="m 122.37891,70.132812 -21.38672,0 -25.414065,-27.289062 0,-15.625 24.621095,-27.21484375 22.03516,0 L 93.863281,35.285156 z m 22.46093,0 -19.22265,0 0,-70.054687 19.22265,0 z m 50.90625,-70.054687 -46.29687,0 0,15.765625 13.53515,0 0,54.359375 19.22657,0 0,-54.359375 13.53515,0 0,-15.765625"
       id="path5"
       inkscape:connector-curvature="0" />
    <path
       style="fill:#009682;fill-opacity:1;fill-rule:evenodd;stroke:none"
       d="M 16.175781,25.707031 C 12.503906,30.171875 9.335938,35.070312 6.890625,40.324219 L 70.96875,70.132812 16.175781,25.707031"
       id="path7"
       inkscape:connector-curvature="0" />
    <path
       style="fill:#009682;fill-opacity:1;fill-rule:evenodd;stroke:none"
       d="M 70.96875,70.132812 41.089844,6.554688 c -5.328125,2.449218 -10.226563,5.472656 -14.6875,9.074218 L 70.96875,70.132812"
       id="path9"
       inkscape:connector-curvature="0" />
    <path
       style="fill:#000000;fill-opacity:1;fill-rule:evenodd;stroke:none"
       d="m 70.96875,70.132812 0.07031,-70.054687 -0.574218,0 c -5.6875,0 -11.230469,0.71875 -16.558594,2.015625 l 17.0625,68.039062"
       id="path11"
       inkscape:connector-curvature="0" />
    <path
       style="fill:#009682;fill-opacity:1;fill-rule:evenodd;stroke:none"
       d="M 2.28125,52.996094 C 0.839844,58.46875 0.121094,64.226562 0.046875,70.132812 l 70.921875,0 -68.6875,-17.136718"
       id="path13"
       inkscape:connector-curvature="0" />
    <path
       style="fill:#000000;fill-opacity:1;fill-rule:nonzero;stroke:none"
       d="m 0,87.550781 1.25,0 0,-4.269531 3.878906,4.269531 1.820313,0 -4.417969,-4.59375 4.09375,-4.121093 -1.65625,0 -3.71875,3.832031 0,-3.832031 -1.25,0 0,8.714843"
       id="path15"
       inkscape:connector-curvature="0" />
    <path
       style="fill:#000000;fill-opacity:1;fill-rule:nonzero;stroke:none"
       d="m 11.855469,85.078125 c 0,0.316406 -0.06641,0.605469 -0.199219,0.855469 -0.132812,0.25 -0.332031,0.449218 -0.59375,0.59375 C 10.796875,86.671875 10.472656,86.75 10.085938,86.75 9.949219,86.75 9.8125,86.726562 9.675781,86.683594 9.535156,86.636719 9.40625,86.574219 9.292969,86.484375 9.175781,86.398438 9.082031,86.289062 9.011719,86.160156 8.9375,86.03125 8.902344,85.882812 8.898438,85.714844 c 0.00391,-0.222656 0.0625,-0.410156 0.171874,-0.558594 0.105469,-0.148438 0.25,-0.269531 0.425782,-0.355469 0.171875,-0.08984 0.359375,-0.15625 0.558594,-0.203125 0.203124,-0.04297 0.394531,-0.07422 0.582031,-0.08594 0.183593,-0.01563 0.339843,-0.02344 0.472656,-0.01953 0.125,0 0.25,0.0039 0.375,0.01172 0.125,0.0078 0.25,0.01172 0.371094,0.01172 z M 8.4375,82.632812 C 8.597656,82.5 8.78125,82.382812 8.980469,82.285156 9.183594,82.1875 9.394531,82.113281 9.617188,82.0625 c 0.222656,-0.05469 0.445312,-0.07813 0.667968,-0.07813 0.390625,0 0.699219,0.0625 0.929688,0.183594 0.230468,0.125 0.394531,0.308593 0.496094,0.554687 0.101562,0.25 0.148437,0.554688 0.144531,0.921875 -0.148438,-0.01172 -0.289063,-0.01563 -0.425781,-0.01953 -0.128907,-0.0039 -0.261719,-0.0039 -0.394532,-0.0078 l -0.425781,0 c -0.246094,0 -0.503906,0.01953 -0.773437,0.06641 -0.269532,0.04297 -0.53125,0.113281 -0.789063,0.210937 -0.257813,0.101563 -0.492187,0.230469 -0.703125,0.390625 -0.210938,0.164063 -0.375,0.363282 -0.5,0.597656 -0.125,0.238282 -0.1875,0.511719 -0.191406,0.832032 0.00391,0.460937 0.105468,0.835937 0.296875,1.128906 0.199219,0.292969 0.472656,0.511719 0.820312,0.648438 0.351563,0.136718 0.753907,0.207031 1.214844,0.207031 0.269531,-0.0039 0.511719,-0.03516 0.722656,-0.09766 0.214844,-0.0625 0.402344,-0.144531 0.5625,-0.242187 0.164063,-0.101563 0.300781,-0.207031 0.414063,-0.316406 0.113281,-0.113281 0.207031,-0.21875 0.273437,-0.316407 l 0.02344,0 0,0.824219 1.101562,0 c -0.0078,-0.0625 -0.01953,-0.144531 -0.02734,-0.246093 -0.0039,-0.105469 -0.01172,-0.238282 -0.01563,-0.402344 -0.0078,-0.160156 -0.0078,-0.363282 -0.0078,-0.601563 l 0,-2.632812 c 0,-0.578125 -0.08203,-1.0625 -0.257812,-1.453125 -0.175782,-0.390625 -0.453126,-0.6875 -0.828126,-0.882813 -0.375,-0.199219 -0.867187,-0.296875 -1.472656,-0.296875 -0.40625,0 -0.78125,0.05859 -1.132812,0.167969 -0.351563,0.109375 -0.671875,0.25 -0.964844,0.429687 l 0.0625,1"
       id="path17"
       inkscape:connector-curvature="0" />
    <path
       style="fill:#000000;fill-opacity:1;fill-rule:nonzero;stroke:none"
       d="m 14.941406,87.550781 1.171875,0 0,-2.898437 c 0.0039,-0.535156 0.07813,-0.996094 0.21875,-1.382813 0.144531,-0.386719 0.34375,-0.6875 0.601563,-0.894531 0.257812,-0.210938 0.5625,-0.316406 0.914062,-0.316406 0.105469,-0.0039 0.210938,0.0039 0.320313,0.02344 0.113281,0.01563 0.222656,0.04297 0.332031,0.08984 l 0,-1.050781 c -0.08203,-0.01563 -0.160156,-0.03125 -0.234375,-0.04687 -0.07422,-0.01172 -0.15625,-0.01953 -0.242187,-0.02734 -0.08203,-0.0078 -0.183594,-0.01172 -0.296876,-0.01172 -0.230468,0 -0.449218,0.05078 -0.664062,0.148438 -0.210938,0.09375 -0.40625,0.226562 -0.578125,0.398437 -0.175781,0.171875 -0.3125,0.367188 -0.417969,0.589844 l -0.02734,0 0,-0.988281 -1.097656,0 0,6.367187"
       id="path19"
       inkscape:connector-curvature="0" />
    <path
       style="fill:#000000;fill-opacity:1;fill-rule:nonzero;stroke:none"
       d="m 19.871094,78.1875 1.175781,0 0,9.363281 -1.175781,0 z m 0,0"
       id="path21"
       inkscape:connector-curvature="0" />
    <path
       style="fill:#000000;fill-opacity:1;fill-rule:nonzero;stroke:none"
       d="m 22.582031,87.347656 c 0.269531,0.140625 0.554688,0.238282 0.851563,0.285156 0.292968,0.04688 0.59375,0.07031 0.898437,0.06641 0.285157,0 0.558594,-0.03906 0.824219,-0.117188 0.261719,-0.08203 0.5,-0.203125 0.710938,-0.367187 0.207031,-0.160156 0.375,-0.367188 0.496093,-0.617188 0.125,-0.25 0.1875,-0.542968 0.1875,-0.882812 0,-0.289063 -0.05469,-0.535156 -0.152343,-0.738282 -0.09766,-0.199218 -0.230469,-0.371093 -0.394532,-0.511718 -0.160156,-0.140625 -0.34375,-0.257813 -0.539062,-0.359375 -0.195313,-0.101563 -0.390625,-0.195313 -0.585938,-0.28125 -0.195312,-0.08594 -0.375,-0.175781 -0.539062,-0.269531 -0.164063,-0.09375 -0.296875,-0.207032 -0.394532,-0.332032 -0.09766,-0.128906 -0.148437,-0.28125 -0.152343,-0.464844 0.0039,-0.175781 0.05469,-0.320312 0.160156,-0.4375 0.101563,-0.113281 0.238281,-0.199218 0.40625,-0.253906 0.167969,-0.05859 0.355469,-0.08203 0.558594,-0.08203 0.07031,0 0.160156,0.0078 0.273437,0.02344 0.109375,0.01953 0.222656,0.04688 0.347656,0.07813 0.125,0.02734 0.238282,0.0625 0.347657,0.101562 0.109375,0.03906 0.195312,0.07813 0.265625,0.121094 l 0.101562,-1.023438 c -0.230468,-0.07031 -0.464844,-0.128906 -0.699218,-0.179687 -0.234376,-0.04297 -0.488282,-0.07031 -0.761719,-0.07031 -0.316407,0 -0.613281,0.03906 -0.882813,0.121094 -0.273437,0.07813 -0.507812,0.199219 -0.714844,0.359375 -0.203124,0.164063 -0.363281,0.367187 -0.476562,0.613281 -0.113281,0.246094 -0.171875,0.535156 -0.171875,0.863282 0,0.253906 0.05078,0.472656 0.152344,0.660156 0.09766,0.1875 0.230469,0.347656 0.394531,0.484375 0.164062,0.132812 0.339844,0.253906 0.539062,0.359375 0.195313,0.105468 0.390626,0.207031 0.585938,0.296875 0.195312,0.09375 0.375,0.1875 0.539062,0.289062 0.164063,0.09375 0.292969,0.207031 0.394532,0.328125 0.09766,0.121094 0.148437,0.265625 0.152344,0.429688 -0.0039,0.171875 -0.03906,0.3125 -0.113282,0.433594 -0.07031,0.113281 -0.167968,0.207031 -0.285156,0.277343 -0.117188,0.07422 -0.246094,0.121094 -0.386719,0.152344 -0.140625,0.03125 -0.277343,0.04687 -0.414062,0.04687 -0.117188,0 -0.257813,-0.01563 -0.425781,-0.05078 -0.167969,-0.03125 -0.34375,-0.08203 -0.523438,-0.148438 -0.183594,-0.06641 -0.351562,-0.148437 -0.511719,-0.25 l -0.0625,1.046875"
       id="path23"
       inkscape:connector-curvature="0" />
    <path
       style="fill:#000000;fill-opacity:1;fill-rule:nonzero;stroke:none"
       d="m 27.902344,87.550781 1.171875,0 0,-2.898437 c 0.0039,-0.535156 0.07422,-0.996094 0.214843,-1.382813 0.144532,-0.386719 0.34375,-0.6875 0.605469,-0.894531 0.257813,-0.210938 0.5625,-0.316406 0.914063,-0.316406 0.101562,-0.0039 0.207031,0.0039 0.320312,0.02344 0.113282,0.01563 0.21875,0.04297 0.328125,0.08984 l 0,-1.050781 c -0.07813,-0.01563 -0.160156,-0.03125 -0.230469,-0.04687 -0.07422,-0.01172 -0.15625,-0.01953 -0.242187,-0.02734 -0.08594,-0.0078 -0.1875,-0.01172 -0.300781,-0.01172 -0.226563,0 -0.445313,0.05078 -0.660156,0.148438 -0.214844,0.09375 -0.40625,0.226562 -0.578126,0.398437 -0.175781,0.171875 -0.316406,0.367188 -0.421874,0.589844 l -0.02344,0 0,-0.988281 -1.097656,0 0,6.367187"
       id="path25"
       inkscape:connector-curvature="0" />
    <path
       style="fill:#000000;fill-opacity:1;fill-rule:nonzero;stroke:none"
       d="m 38.3125,81.183594 -1.175781,0 0,2.945312 c 0,0.390625 -0.03516,0.742188 -0.113281,1.0625 -0.07813,0.320313 -0.191407,0.597656 -0.351563,0.828125 -0.15625,0.234375 -0.359375,0.414063 -0.601563,0.539063 C 35.824219,86.6875 35.535156,86.75 35.203125,86.75 c -0.339844,-0.01953 -0.605469,-0.117188 -0.804687,-0.285156 -0.195313,-0.171875 -0.335938,-0.421875 -0.421876,-0.75 -0.08203,-0.328125 -0.125,-0.742188 -0.121093,-1.234375 l 0,-3.296875 -1.171875,0 0,3.78125 c 0,0.574218 0.08203,1.0625 0.25,1.46875 0.167968,0.410156 0.429687,0.71875 0.78125,0.9375 0.351562,0.214844 0.804687,0.324218 1.351562,0.328125 0.296875,-0.0039 0.585938,-0.04687 0.855469,-0.140625 0.273437,-0.09375 0.515625,-0.226563 0.730469,-0.398438 0.210937,-0.171875 0.378906,-0.378906 0.5,-0.621094 l 0.02344,0 0,1.011719 1.136719,0 0,-6.367187"
       id="path27"
       inkscape:connector-curvature="0" />
    <path
       style="fill:#000000;fill-opacity:1;fill-rule:nonzero;stroke:none"
       d="m 40.234375,87.550781 1.171875,0 0,-2.945312 c 0,-0.390625 0.03906,-0.746094 0.117188,-1.066407 0.07422,-0.320312 0.191406,-0.59375 0.351562,-0.824218 0.15625,-0.234375 0.359375,-0.414063 0.601562,-0.539063 0.242188,-0.128906 0.535157,-0.191406 0.867188,-0.191406 0.335938,0.01953 0.605469,0.113281 0.804688,0.285156 0.195312,0.171875 0.335937,0.421875 0.417968,0.75 0.08594,0.328125 0.125,0.738281 0.125,1.234375 l 0,3.296875 1.171875,0 0,-3.785156 c 0.0039,-0.570313 -0.08203,-1.058594 -0.25,-1.46875 -0.167969,-0.40625 -0.433593,-0.71875 -0.785156,-0.933594 -0.351563,-0.21875 -0.800781,-0.328125 -1.347656,-0.328125 -0.449219,0 -0.84375,0.09375 -1.195313,0.277344 -0.351562,0.179688 -0.636718,0.445312 -0.851562,0.78125 l -0.02734,0 0,-3.90625 -1.171875,0 0,9.363281"
       id="path29"
       inkscape:connector-curvature="0" />
    <path
       style="fill:#000000;fill-opacity:1;fill-rule:nonzero;stroke:none"
       d="m 48.609375,83.753906 c 0.02344,-0.207031 0.07031,-0.414062 0.144531,-0.621094 0.07422,-0.210937 0.175782,-0.398437 0.316406,-0.574218 0.132813,-0.171875 0.304688,-0.308594 0.511719,-0.414063 0.207031,-0.105469 0.453125,-0.160156 0.738281,-0.160156 0.253907,0 0.476563,0.04687 0.675782,0.136719 0.195312,0.09375 0.359375,0.21875 0.496094,0.382812 0.136718,0.160156 0.238281,0.351563 0.308593,0.5625 0.07031,0.214844 0.105469,0.441406 0.105469,0.6875 z m 4.058594,2.359375 c -0.07422,0.0625 -0.179688,0.128907 -0.320313,0.199219 -0.136718,0.07422 -0.296875,0.140625 -0.476562,0.210938 -0.179688,0.06641 -0.371094,0.117187 -0.570313,0.160156 -0.199219,0.04297 -0.398437,0.06641 -0.59375,0.06641 -0.28125,0 -0.542969,-0.05078 -0.796875,-0.152344 -0.25,-0.101562 -0.472656,-0.25 -0.667968,-0.4375 C 49.046875,85.972656 48.894531,85.75 48.78125,85.492188 48.671875,85.230469 48.613281,84.945312 48.609375,84.628906 l 4.542969,0 c 0.0039,-0.515625 -0.04297,-0.992187 -0.136719,-1.425781 -0.09766,-0.4375 -0.253906,-0.816406 -0.46875,-1.140625 -0.21875,-0.324219 -0.507813,-0.574219 -0.867187,-0.753906 -0.359376,-0.179688 -0.804688,-0.273438 -1.335938,-0.273438 -0.449219,0 -0.855469,0.08203 -1.222656,0.234375 -0.363282,0.160157 -0.679688,0.378907 -0.941406,0.667969 -0.261719,0.285156 -0.464844,0.625 -0.601563,1.019531 -0.144531,0.390625 -0.214844,0.824219 -0.214844,1.296875 0,0.519532 0.0625,0.992188 0.195313,1.414063 0.132812,0.421875 0.335937,0.78125 0.605468,1.085937 0.269532,0.300782 0.613282,0.535156 1.023438,0.699219 0.417969,0.164063 0.90625,0.242187 1.46875,0.246094 0.347656,-0.0039 0.644531,-0.02734 0.890625,-0.07031 0.242187,-0.04687 0.453125,-0.101562 0.632813,-0.164062 0.175781,-0.0625 0.339843,-0.121094 0.488281,-0.179688 l 0,-1.171875"
       id="path31"
       inkscape:connector-curvature="0" />
    <path
       style="fill:#000000;fill-opacity:1;fill-rule:nonzero;stroke:none"
       d="m 54.652344,87.550781 1.175781,0 0,-2.898437 c 0,-0.535156 0.07422,-0.996094 0.214844,-1.382813 0.144531,-0.386719 0.34375,-0.6875 0.601562,-0.894531 0.257813,-0.210938 0.566407,-0.316406 0.917969,-0.316406 0.101562,-0.0039 0.207031,0.0039 0.320312,0.02344 0.109376,0.01563 0.21875,0.04297 0.328126,0.08984 l 0,-1.050781 c -0.08203,-0.01563 -0.160157,-0.03125 -0.234376,-0.04687 -0.07422,-0.01172 -0.15625,-0.01953 -0.242187,-0.02734 -0.08203,-0.0078 -0.183594,-0.01172 -0.296875,-0.01172 -0.226562,0 -0.449219,0.05078 -0.664062,0.148438 -0.210938,0.09375 -0.40625,0.226562 -0.578126,0.398437 -0.171874,0.171875 -0.3125,0.367188 -0.417968,0.589844 l -0.02734,0 0,-0.988281 -1.097656,0 0,6.367187"
       id="path33"
       inkscape:connector-curvature="0" />
    <path
       style="fill:#000000;fill-opacity:1;fill-rule:nonzero;stroke:none"
       d="m 63.015625,78.835938 1.25,0 0,8.714843 -1.25,0 z m 0,0"
       id="path35"
       inkscape:connector-curvature="0" />
    <path
       style="fill:#000000;fill-opacity:1;fill-rule:nonzero;stroke:none"
       d="m 66.300781,87.550781 1.171875,0 0,-2.945312 c 0,-0.390625 0.03906,-0.746094 0.117188,-1.066407 0.07422,-0.320312 0.191406,-0.59375 0.351562,-0.824218 0.15625,-0.234375 0.355469,-0.414063 0.601563,-0.539063 0.242187,-0.128906 0.53125,-0.191406 0.863281,-0.191406 0.339844,0.01953 0.609375,0.113281 0.808594,0.285156 0.195312,0.171875 0.335937,0.421875 0.417968,0.75 0.08594,0.328125 0.125,0.738281 0.125,1.234375 l 0,3.296875 1.171876,0 0,-3.785156 c 0,-0.570313 -0.08594,-1.058594 -0.253907,-1.46875 -0.167969,-0.40625 -0.429687,-0.71875 -0.78125,-0.933594 -0.351562,-0.21875 -0.800781,-0.328125 -1.351562,-0.328125 -0.296875,0 -0.582031,0.04687 -0.855469,0.136719 -0.273438,0.09375 -0.515625,0.226563 -0.726562,0.402344 -0.214844,0.171875 -0.382813,0.378906 -0.5,0.621093 l -0.02344,0 0,-1.011718 -1.136719,0 0,6.367187"
       id="path37"
       inkscape:connector-curvature="0" />
    <path
       style="fill:#000000;fill-opacity:1;fill-rule:nonzero;stroke:none"
       d="m 73.316406,87.347656 c 0.269532,0.140625 0.550782,0.238282 0.851563,0.285156 0.292969,0.04688 0.59375,0.07031 0.894531,0.06641 0.289062,0 0.5625,-0.03906 0.828125,-0.117188 0.261719,-0.08203 0.5,-0.203125 0.710937,-0.367187 0.207032,-0.160156 0.371094,-0.367188 0.496094,-0.617188 0.121094,-0.25 0.183594,-0.542968 0.1875,-0.882812 -0.0039,-0.289063 -0.05469,-0.535156 -0.152344,-0.738282 -0.101562,-0.199218 -0.230468,-0.371093 -0.394531,-0.511718 -0.164062,-0.140625 -0.34375,-0.257813 -0.539062,-0.359375 -0.195313,-0.101563 -0.390625,-0.195313 -0.585938,-0.28125 -0.195312,-0.08594 -0.378906,-0.175781 -0.539062,-0.269531 -0.164063,-0.09375 -0.296875,-0.207032 -0.394531,-0.332032 -0.09766,-0.128906 -0.152344,-0.28125 -0.152344,-0.464844 0,-0.175781 0.05469,-0.320312 0.15625,-0.4375 0.101562,-0.113281 0.238281,-0.199218 0.410156,-0.253906 0.167969,-0.05859 0.355469,-0.08203 0.554688,-0.08203 0.07031,0 0.164062,0.0078 0.273437,0.02344 0.109375,0.01953 0.226563,0.04688 0.351563,0.07813 0.125,0.02734 0.238281,0.0625 0.347656,0.101562 0.109375,0.03906 0.195312,0.07813 0.265625,0.121094 l 0.09766,-1.023438 c -0.226563,-0.07031 -0.460937,-0.128906 -0.695313,-0.179687 -0.238281,-0.04297 -0.492187,-0.07031 -0.765624,-0.07031 -0.3125,0 -0.609376,0.03906 -0.878907,0.121094 -0.273437,0.07813 -0.511719,0.199219 -0.714843,0.359375 -0.203126,0.164063 -0.363282,0.367187 -0.476563,0.613281 -0.113281,0.246094 -0.171875,0.535156 -0.175781,0.863282 0.0039,0.253906 0.05469,0.472656 0.15625,0.660156 0.09766,0.1875 0.226562,0.347656 0.390625,0.484375 0.164062,0.132812 0.34375,0.253906 0.539062,0.359375 0.195313,0.105468 0.390625,0.207031 0.589844,0.296875 0.195313,0.09375 0.375,0.1875 0.535156,0.289062 0.164063,0.09375 0.296875,0.207031 0.398438,0.328125 0.09375,0.121094 0.148437,0.265625 0.148437,0.429688 0,0.171875 -0.03906,0.3125 -0.109375,0.433594 -0.07422,0.113281 -0.167969,0.207031 -0.285156,0.277343 -0.121094,0.07422 -0.25,0.121094 -0.386719,0.152344 -0.140625,0.03125 -0.28125,0.04687 -0.414062,0.04687 -0.117188,0 -0.257813,-0.01563 -0.429688,-0.05078 -0.167968,-0.03125 -0.339844,-0.08203 -0.523437,-0.148438 -0.179688,-0.06641 -0.351563,-0.148437 -0.507813,-0.25 l -0.0625,1.046875"
       id="path39"
       inkscape:connector-curvature="0" />
    <path
       style="fill:#000000;fill-opacity:1;fill-rule:nonzero;stroke:none"
       d="m 82.015625,81.183594 -1.683594,0 0,-1.847656 -1.175781,0.375 0,1.472656 -1.433594,0 0,0.949218 1.433594,0 0,3.71875 c 0.0039,0.425782 0.08203,0.773438 0.242188,1.042969 0.15625,0.273438 0.382812,0.476563 0.671874,0.609375 0.292969,0.128906 0.640626,0.195313 1.046876,0.195313 0.191406,-0.0039 0.371093,-0.02344 0.542968,-0.0625 0.171875,-0.03516 0.324219,-0.07422 0.457032,-0.113281 l 0,-0.996094 c -0.08984,0.05469 -0.199219,0.109375 -0.328126,0.152344 -0.132812,0.04687 -0.292968,0.07031 -0.472656,0.07031 -0.179687,0 -0.34375,-0.04297 -0.492187,-0.128906 -0.148438,-0.08984 -0.269531,-0.214844 -0.355469,-0.382813 -0.08984,-0.171875 -0.136719,-0.378906 -0.136719,-0.625 l 0,-3.480469 1.683594,0 0,-0.949218"
       id="path41"
       inkscape:connector-curvature="0" />
    <path
       style="fill:#000000;fill-opacity:1;fill-rule:nonzero;stroke:none"
       d="m 84.8125,78.4375 -1.324219,0 0,1.324219 1.324219,0 z m -1.246094,9.113281 1.171875,0 0,-6.367187 -1.171875,0 0,6.367187"
       id="path43"
       inkscape:connector-curvature="0" />
    <path
       style="fill:#000000;fill-opacity:1;fill-rule:nonzero;stroke:none"
       d="m 90.195312,81.183594 -1.6875,0 0,-1.847656 -1.171874,0.375 0,1.472656 -1.433594,0 0,0.949218 1.433594,0 0,3.71875 c 0.0039,0.425782 0.08203,0.773438 0.238281,1.042969 0.160156,0.273438 0.382812,0.476563 0.675781,0.609375 0.292969,0.128906 0.640625,0.195313 1.046875,0.195313 0.1875,-0.0039 0.367187,-0.02344 0.539063,-0.0625 0.171874,-0.03516 0.324218,-0.07422 0.457031,-0.113281 l 0,-0.996094 c -0.08594,0.05469 -0.195313,0.109375 -0.328125,0.152344 C 89.832031,86.726562 89.675781,86.75 89.496094,86.75 89.3125,86.75 89.148438,86.707031 89,86.621094 88.851562,86.53125 88.734375,86.40625 88.648438,86.238281 c -0.09375,-0.171875 -0.136719,-0.378906 -0.140626,-0.625 l 0,-3.480469 1.6875,0 0,-0.949218"
       id="path45"
       inkscape:connector-curvature="0" />
    <path
       style="fill:#000000;fill-opacity:1;fill-rule:nonzero;stroke:none"
       d="m 97.222656,81.183594 -1.175781,0 0,2.945312 c 0,0.390625 -0.03516,0.742188 -0.113281,1.0625 -0.07813,0.320313 -0.191406,0.597656 -0.351563,0.828125 -0.15625,0.234375 -0.359375,0.414063 -0.601562,0.539063 C 94.734375,86.6875 94.449219,86.75 94.113281,86.75 c -0.335937,-0.01953 -0.605469,-0.117188 -0.804687,-0.285156 -0.199219,-0.171875 -0.335938,-0.421875 -0.417969,-0.75 -0.08594,-0.328125 -0.125,-0.742188 -0.125,-1.234375 l 0,-3.296875 -1.171875,0 0,3.78125 c 0,0.574218 0.08203,1.0625 0.25,1.46875 0.171875,0.410156 0.433594,0.71875 0.785156,0.9375 0.347656,0.214844 0.800782,0.324218 1.347656,0.328125 0.296876,-0.0039 0.585938,-0.04687 0.859376,-0.140625 0.269531,-0.09375 0.511718,-0.226563 0.726562,-0.398438 0.214844,-0.171875 0.378906,-0.378906 0.5,-0.621094 l 0.02344,0 0,1.011719 1.136718,0 0,-6.367187"
       id="path47"
       inkscape:connector-curvature="0" />
    <path
       style="fill:#000000;fill-opacity:1;fill-rule:nonzero;stroke:none"
       d="m 102.52734,81.183594 -1.68359,0 0,-1.847656 -1.175781,0.375 0,1.472656 -1.433594,0 0,0.949218 1.433594,0 0,3.71875 c 0.0039,0.425782 0.08203,0.773438 0.242187,1.042969 0.156254,0.273438 0.382814,0.476563 0.671874,0.609375 0.29297,0.128906 0.64063,0.195313 1.04688,0.195313 0.1875,-0.0039 0.37109,-0.02344 0.54297,-0.0625 0.17187,-0.03516 0.32031,-0.07422 0.45703,-0.113281 l 0,-0.996094 c -0.0898,0.05469 -0.19922,0.109375 -0.32813,0.152344 -0.13672,0.04687 -0.28906,0.07031 -0.47265,0.07031 -0.17969,0 -0.34375,-0.04297 -0.49219,-0.128906 -0.14844,-0.08984 -0.26953,-0.214844 -0.35547,-0.382813 -0.0898,-0.171875 -0.13672,-0.378906 -0.13672,-0.625 l 0,-3.480469 1.68359,0 0,-0.949218"
       id="path49"
       inkscape:connector-curvature="0" />
    <path
       style="fill:#000000;fill-opacity:1;fill-rule:nonzero;stroke:none"
       d="m 108.15625,87.550781 1.17578,0 0,-5.417969 1.6836,0 0,-0.949218 -1.6836,0 0,-0.6875 c -0.004,-0.214844 0.0117,-0.414063 0.0352,-0.597656 0.0234,-0.183594 0.0742,-0.34375 0.15234,-0.480469 0.0781,-0.136719 0.19141,-0.242188 0.34375,-0.316407 0.15235,-0.07422 0.35156,-0.113281 0.60547,-0.113281 0.0977,0 0.20313,0.0039 0.30078,0.01953 0.10156,0.01172 0.1875,0.03125 0.25781,0.05469 l 0.0508,-0.949219 c -0.11719,-0.01953 -0.24219,-0.03516 -0.3711,-0.05078 -0.1289,-0.01563 -0.26562,-0.02344 -0.41406,-0.02344 -0.43359,0 -0.78516,0.0625 -1.06641,0.179688 -0.27734,0.121094 -0.49609,0.292969 -0.65234,0.519531 -0.15625,0.222657 -0.26563,0.492188 -0.32813,0.808594 -0.0625,0.3125 -0.0898,0.660156 -0.0898,1.050781 l 0,0.585938 -1.49609,0 0,0.949218 1.49609,0 0,5.417969"
       id="path51"
       inkscape:connector-curvature="0" />
    <path
       style="fill:#000000;fill-opacity:1;fill-rule:nonzero;stroke:none"
       d="m 117.80859,81.183594 -1.17578,0 0,2.945312 c 0,0.390625 -0.0352,0.742188 -0.11328,1.0625 -0.0781,0.320313 -0.19531,0.597656 -0.35156,0.828125 -0.15625,0.234375 -0.35938,0.414063 -0.60547,0.539063 -0.24219,0.128906 -0.53125,0.191406 -0.86328,0.191406 -0.33984,-0.01953 -0.60547,-0.117188 -0.80469,-0.285156 -0.19922,-0.171875 -0.33594,-0.421875 -0.42187,-0.75 -0.082,-0.328125 -0.1211,-0.742188 -0.1211,-1.234375 l 0,-3.296875 -1.17187,0 0,3.78125 c 0,0.574218 0.082,1.0625 0.25,1.46875 0.16797,0.410156 0.42969,0.71875 0.78125,0.9375 0.35156,0.214844 0.80469,0.324218 1.35156,0.328125 0.29688,-0.0039 0.58203,-0.04687 0.85547,-0.140625 0.27344,-0.09375 0.51562,-0.226563 0.73047,-0.398438 0.21094,-0.171875 0.3789,-0.378906 0.49609,-0.621094 l 0.0273,0 0,1.011719 1.13671,0 z m -2.37109,-0.972656 1.17188,0 0,-1.25 -1.17188,0 z m -2.04687,0 1.17187,0 0,-1.25 -1.17187,0 0,1.25"
       id="path53"
       inkscape:connector-curvature="0" />
    <path
       style="fill:#000000;fill-opacity:1;fill-rule:nonzero;stroke:none"
       d="m 119.73047,87.550781 1.17187,0 0,-2.898437 c 0.004,-0.535156 0.0781,-0.996094 0.21875,-1.382813 0.14454,-0.386719 0.34375,-0.6875 0.60157,-0.894531 0.25781,-0.210938 0.5625,-0.316406 0.91797,-0.316406 0.0977,-0.0039 0.20703,0.0039 0.32031,0.02344 0.10937,0.01563 0.21875,0.04297 0.32422,0.08984 l 0,-1.050781 c -0.0781,-0.01563 -0.15625,-0.03125 -0.23047,-0.04687 -0.0742,-0.01172 -0.15625,-0.01953 -0.24219,-0.02734 -0.082,-0.0078 -0.18359,-0.01172 -0.29687,-0.01172 -0.23047,0 -0.44922,0.05078 -0.66407,0.148438 -0.21093,0.09375 -0.40625,0.226562 -0.57812,0.398437 -0.17188,0.171875 -0.3125,0.367188 -0.41797,0.589844 l -0.0273,0 0,-0.988281 -1.09766,0 0,6.367187"
       id="path55"
       inkscape:connector-curvature="0" />
    <path
       style="fill:#000000;fill-opacity:1;fill-rule:nonzero;stroke:none"
       d="m 129.82812,87.550781 1.25,0 0,-7.613281 2.70704,0 0,-1.101562 -6.66407,0 0,1.101562 2.70703,0 0,7.613281"
       id="path57"
       inkscape:connector-curvature="0" />
    <path
       style="fill:#000000;fill-opacity:1;fill-rule:nonzero;stroke:none"
       d="m 134.74609,83.753906 c 0.0234,-0.207031 0.0703,-0.414062 0.14453,-0.621094 0.0742,-0.210937 0.17579,-0.398437 0.3125,-0.574218 0.13672,-0.171875 0.3086,-0.308594 0.51563,-0.414063 0.20703,-0.105469 0.45312,-0.160156 0.73828,-0.160156 0.25391,0 0.48047,0.04687 0.67578,0.136719 0.19531,0.09375 0.35938,0.21875 0.4961,0.382812 0.13671,0.160156 0.23828,0.351563 0.30859,0.5625 0.0703,0.214844 0.10547,0.441406 0.10547,0.6875 z m 4.0586,2.359375 c -0.0742,0.0625 -0.17969,0.128907 -0.32032,0.199219 -0.13671,0.07422 -0.29687,0.140625 -0.47656,0.210938 -0.18359,0.06641 -0.37109,0.117187 -0.57031,0.160156 -0.19922,0.04297 -0.39844,0.06641 -0.59375,0.06641 -0.28125,0 -0.54297,-0.05078 -0.79688,-0.152344 -0.25,-0.101562 -0.47265,-0.25 -0.66796,-0.4375 -0.19532,-0.1875 -0.34766,-0.410156 -0.46094,-0.667968 -0.10938,-0.261719 -0.16797,-0.546876 -0.17188,-0.863282 l 4.54297,0 c 0.004,-0.515625 -0.0469,-0.992187 -0.13672,-1.425781 -0.0977,-0.4375 -0.2539,-0.816406 -0.46875,-1.140625 -0.21875,-0.324219 -0.5039,-0.574219 -0.86718,-0.753906 -0.35938,-0.179688 -0.80469,-0.273438 -1.33594,-0.273438 -0.44922,0 -0.85938,0.08203 -1.22266,0.234375 -0.36328,0.160157 -0.67969,0.378907 -0.9414,0.667969 -0.26172,0.285156 -0.46094,0.625 -0.60157,1.019531 -0.14453,0.390625 -0.21093,0.824219 -0.21484,1.296875 0,0.519532 0.0625,0.992188 0.19531,1.414063 0.13281,0.421875 0.33594,0.78125 0.60547,1.085937 0.26953,0.300782 0.60938,0.535156 1.02344,0.699219 0.41797,0.164063 0.90625,0.242187 1.47265,0.246094 0.34375,-0.0039 0.64063,-0.02734 0.88672,-0.07031 0.24219,-0.04687 0.45313,-0.101562 0.63282,-0.164062 0.17578,-0.0625 0.33984,-0.121094 0.48828,-0.179688 l 0,-1.171875"
       id="path59"
       inkscape:connector-curvature="0" />
    <path
       style="fill:#000000;fill-opacity:1;fill-rule:nonzero;stroke:none"
       d="m 144.93359,81.285156 c -0.11718,-0.04687 -0.25,-0.08984 -0.41406,-0.128906 -0.16016,-0.03516 -0.32812,-0.06641 -0.50391,-0.08984 -0.17578,-0.01953 -0.34375,-0.03125 -0.5039,-0.03125 -0.49219,0 -0.9336,0.08594 -1.32813,0.246094 -0.39843,0.164062 -0.74218,0.394531 -1.02734,0.691406 -0.28516,0.300782 -0.50391,0.652344 -0.66016,1.054688 -0.15234,0.40625 -0.22656,0.851562 -0.23047,1.339844 0.004,0.457031 0.082,0.886718 0.23829,1.289062 0.15234,0.402344 0.375,0.753906 0.66406,1.058594 0.28515,0.304687 0.6289,0.546875 1.02344,0.71875 0.39843,0.171875 0.83593,0.261718 1.32031,0.265625 0.14062,0 0.29687,-0.0078 0.46094,-0.01953 0.16796,-0.01172 0.33593,-0.03516 0.50781,-0.07422 0.17187,-0.03906 0.33594,-0.09375 0.5039,-0.167969 l -0.0898,-1.050781 c -0.12109,0.08203 -0.25391,0.148437 -0.39844,0.203125 -0.14062,0.05078 -0.28906,0.09375 -0.4375,0.117187 -0.14843,0.02734 -0.28906,0.04297 -0.42187,0.04297 -0.30078,0 -0.57031,-0.04687 -0.80078,-0.140625 -0.23047,-0.08594 -0.4336,-0.210937 -0.60157,-0.371094 -0.16796,-0.15625 -0.30078,-0.339843 -0.41015,-0.542969 -0.10547,-0.203124 -0.1836,-0.417968 -0.23438,-0.644531 -0.0508,-0.226562 -0.0742,-0.457031 -0.0742,-0.683593 0,-0.304688 0.043,-0.601563 0.13282,-0.882813 0.0898,-0.285156 0.22265,-0.539063 0.39843,-0.761719 0.17579,-0.226562 0.38672,-0.40625 0.64063,-0.539062 0.25391,-0.128906 0.54297,-0.199219 0.875,-0.199219 0.1875,0 0.38672,0.01953 0.60547,0.06641 0.21875,0.04297 0.4375,0.113281 0.66797,0.207031 l 0.0977,-0.972656"
       id="path61"
       inkscape:connector-curvature="0" />
    <path
       style="fill:#000000;fill-opacity:1;fill-rule:nonzero;stroke:none"
       d="m 146.25781,87.550781 1.17188,0 0,-2.945312 c 0,-0.390625 0.0391,-0.746094 0.11718,-1.066407 0.0742,-0.320312 0.19141,-0.59375 0.34766,-0.824218 0.16016,-0.234375 0.36328,-0.414063 0.60547,-0.539063 0.24219,-0.128906 0.53125,-0.191406 0.86328,-0.191406 0.33984,0.01953 0.60938,0.113281 0.80859,0.285156 0.19532,0.171875 0.33594,0.421875 0.41797,0.75 0.0859,0.328125 0.125,0.738281 0.125,1.234375 l 0,3.296875 1.17188,0 0,-3.785156 c 0.004,-0.570313 -0.082,-1.058594 -0.25,-1.46875 -0.17188,-0.40625 -0.4336,-0.71875 -0.78516,-0.933594 -0.35156,-0.21875 -0.80078,-0.328125 -1.34765,-0.328125 -0.44922,0 -0.84766,0.09375 -1.19532,0.277344 -0.35547,0.179688 -0.63672,0.445312 -0.85156,0.78125 l -0.0273,0 0,-3.90625 -1.17188,0 0,9.363281"
       id="path63"
       inkscape:connector-curvature="0" />
    <path
       style="fill:#000000;fill-opacity:1;fill-rule:nonzero;stroke:none"
       d="m 153.80859,87.550781 1.17578,0 0,-2.945312 c 0,-0.390625 0.0352,-0.746094 0.11329,-1.066407 0.0781,-0.320312 0.1914,-0.59375 0.35156,-0.824218 0.15625,-0.234375 0.35937,-0.414063 0.60547,-0.539063 0.24218,-0.128906 0.53125,-0.191406 0.86328,-0.191406 0.33984,0.01953 0.60547,0.113281 0.80469,0.285156 0.19921,0.171875 0.33593,0.421875 0.42187,0.75 0.0859,0.328125 0.125,0.738281 0.12109,1.234375 l 0,3.296875 1.17188,0 0,-3.785156 c 0.004,-0.570313 -0.082,-1.058594 -0.25,-1.46875 -0.16797,-0.40625 -0.42969,-0.71875 -0.78516,-0.933594 -0.34765,-0.21875 -0.79687,-0.328125 -1.34765,-0.328125 -0.29688,0 -0.58203,0.04687 -0.85547,0.136719 -0.27344,0.09375 -0.51563,0.226563 -0.73047,0.402344 -0.21094,0.171875 -0.37891,0.378906 -0.49609,0.621093 l -0.0273,0 0,-1.011718 -1.13672,0 0,6.367187"
       id="path65"
       inkscape:connector-curvature="0" />
    <path
       style="fill:#000000;fill-opacity:1;fill-rule:nonzero;stroke:none"
       d="m 162.1875,84.367188 c 0,-0.304688 0.043,-0.601563 0.13281,-0.882813 0.0898,-0.285156 0.21875,-0.539063 0.39453,-0.761719 0.16797,-0.226562 0.37891,-0.40625 0.625,-0.539062 0.2461,-0.128906 0.52735,-0.199219 0.84375,-0.199219 0.3125,0 0.58985,0.07031 0.83594,0.199219 0.24609,0.132812 0.45313,0.3125 0.625,0.539062 0.16797,0.222656 0.30078,0.476563 0.38672,0.761719 0.0898,0.28125 0.13672,0.578125 0.13672,0.882813 0,0.226562 -0.0234,0.457031 -0.0742,0.683593 -0.0508,0.226563 -0.125,0.441407 -0.23047,0.644531 -0.10156,0.203126 -0.23047,0.386719 -0.38672,0.542969 -0.16015,0.160157 -0.34375,0.285157 -0.55859,0.371094 -0.21485,0.09375 -0.46094,0.140625 -0.73438,0.140625 -0.27734,0 -0.52343,-0.04687 -0.74218,-0.140625 -0.21485,-0.08594 -0.40235,-0.210937 -0.5586,-0.371094 -0.16015,-0.15625 -0.28906,-0.339843 -0.39453,-0.542969 -0.10156,-0.203124 -0.17578,-0.417968 -0.22656,-0.644531 -0.0508,-0.226562 -0.0742,-0.457031 -0.0742,-0.683593 z m -1.25,0 c 0.004,0.457031 0.082,0.886718 0.23828,1.289062 0.15625,0.402344 0.375,0.753906 0.66406,1.058594 0.28907,0.304687 0.62891,0.546875 1.02344,0.71875 0.39844,0.171875 0.83594,0.261718 1.32031,0.265625 0.47657,-0.0039 0.91797,-0.09375 1.3086,-0.265625 0.39843,-0.171875 0.73828,-0.414063 1.02343,-0.71875 0.28516,-0.304688 0.50782,-0.65625 0.66407,-1.058594 0.15625,-0.402344 0.23437,-0.832031 0.23437,-1.289062 0,-0.488282 -0.0781,-0.933594 -0.23047,-1.339844 -0.15625,-0.402344 -0.37109,-0.753906 -0.66015,-1.054688 -0.28516,-0.296875 -0.625,-0.527344 -1.01953,-0.691406 -0.39454,-0.160156 -0.83594,-0.246094 -1.32032,-0.246094 -0.48828,0 -0.93359,0.08594 -1.32812,0.246094 -0.39844,0.164062 -0.74219,0.394531 -1.02735,0.691406 -0.28125,0.300782 -0.5039,0.652344 -0.65625,1.054688 -0.15625,0.40625 -0.23046,0.851562 -0.23437,1.339844"
       id="path67"
       inkscape:connector-curvature="0" />
    <path
       style="fill:#000000;fill-opacity:1;fill-rule:nonzero;stroke:none"
       d="m 169.0625,78.1875 1.17578,0 0,9.363281 -1.17578,0 z m 0,0"
       id="path69"
       inkscape:connector-curvature="0" />
    <path
       style="fill:#000000;fill-opacity:1;fill-rule:nonzero;stroke:none"
       d="m 173.13672,84.367188 c 0,-0.304688 0.043,-0.601563 0.13281,-0.882813 0.0898,-0.285156 0.21875,-0.539063 0.39063,-0.761719 0.17187,-0.226562 0.38281,-0.40625 0.625,-0.539062 0.25,-0.128906 0.53125,-0.199219 0.84765,-0.199219 0.3086,0 0.58985,0.07031 0.83594,0.199219 0.24609,0.132812 0.45312,0.3125 0.625,0.539062 0.16797,0.222656 0.30078,0.476563 0.38672,0.761719 0.0898,0.28125 0.13281,0.578125 0.13281,0.882813 0,0.226562 -0.0234,0.457031 -0.0742,0.683593 -0.0469,0.226563 -0.125,0.441407 -0.22656,0.644531 -0.10156,0.203126 -0.23047,0.386719 -0.39063,0.542969 -0.15625,0.160157 -0.34375,0.285157 -0.55859,0.371094 -0.21094,0.09375 -0.45703,0.140625 -0.73047,0.140625 -0.27734,0 -0.52734,-0.04687 -0.74219,-0.140625 -0.21484,-0.08594 -0.40234,-0.210937 -0.5625,-0.371094 -0.15625,-0.15625 -0.28515,-0.339843 -0.39062,-0.542969 -0.10156,-0.203124 -0.17578,-0.417968 -0.22656,-0.644531 -0.0508,-0.226562 -0.0742,-0.457031 -0.0742,-0.683593 z m -1.25,0 c 0.004,0.457031 0.082,0.886718 0.23828,1.289062 0.15234,0.402344 0.375,0.753906 0.66406,1.058594 0.28516,0.304687 0.62891,0.546875 1.02344,0.71875 0.39844,0.171875 0.83594,0.261718 1.32031,0.265625 0.47656,-0.0039 0.91797,-0.09375 1.3086,-0.265625 0.39453,-0.171875 0.73828,-0.414063 1.02343,-0.71875 0.28516,-0.304688 0.50782,-0.65625 0.66407,-1.058594 0.15234,-0.402344 0.23046,-0.832031 0.23437,-1.289062 -0.004,-0.488282 -0.0781,-0.933594 -0.23047,-1.339844 -0.15625,-0.402344 -0.375,-0.753906 -0.66015,-1.054688 -0.28516,-0.296875 -0.625,-0.527344 -1.01954,-0.691406 -0.39453,-0.160156 -0.83593,-0.246094 -1.32031,-0.246094 -0.48828,0 -0.93359,0.08594 -1.32812,0.246094 -0.39844,0.164062 -0.74219,0.394531 -1.02735,0.691406 -0.28515,0.300782 -0.5039,0.652344 -0.66015,1.054688 -0.15235,0.40625 -0.22657,0.851562 -0.23047,1.339844"
       id="path71"
       inkscape:connector-curvature="0" />
    <path
       style="fill:#000000;fill-opacity:1;fill-rule:nonzero;stroke:none"
       d="m 182.46094,86.601562 c -0.27735,-0.0039 -0.52344,-0.0625 -0.74219,-0.183593 -0.21875,-0.117188 -0.40625,-0.285157 -0.55859,-0.492188 -0.15235,-0.207031 -0.26954,-0.445312 -0.35157,-0.714843 -0.0781,-0.269532 -0.12109,-0.554688 -0.12109,-0.855469 0,-0.21875 0.0234,-0.441407 0.0703,-0.664063 0.0469,-0.222656 0.11719,-0.4375 0.21094,-0.640625 0.0937,-0.203125 0.21484,-0.386719 0.35547,-0.546875 0.14062,-0.160156 0.30859,-0.285156 0.49609,-0.378906 0.19141,-0.09375 0.40235,-0.140625 0.64063,-0.140625 0.30859,0 0.58203,0.06641 0.8164,0.195313 0.23438,0.128906 0.42578,0.308593 0.57813,0.535156 0.15625,0.230468 0.27344,0.488281 0.34765,0.785156 0.0781,0.292969 0.11329,0.609375 0.11329,0.941406 0,0.296875 -0.043,0.578125 -0.13282,0.839844 -0.0898,0.257812 -0.21875,0.488281 -0.38281,0.683594 -0.16406,0.199218 -0.35937,0.351562 -0.58594,0.464844 -0.23047,0.113281 -0.48047,0.167968 -0.7539,0.171874 z m 3.03125,-5.417968 -1.08594,0 0,0.949218 -0.0234,0 c -0.11719,-0.230468 -0.26562,-0.425781 -0.44922,-0.589843 -0.1875,-0.164063 -0.41406,-0.289063 -0.68359,-0.375 -0.26953,-0.08984 -0.59375,-0.132813 -0.96484,-0.132813 -0.38672,0 -0.72657,0.06641 -1.03516,0.195313 -0.30469,0.125 -0.57031,0.300781 -0.79688,0.523437 -0.22656,0.222656 -0.41406,0.480469 -0.5664,0.765625 -0.15235,0.285157 -0.26172,0.59375 -0.33594,0.917969 -0.0742,0.324219 -0.11328,0.648438 -0.11328,0.980469 0,0.414062 0.0586,0.808593 0.16797,1.183593 0.11328,0.371094 0.28515,0.707032 0.51172,1 0.22656,0.289063 0.50781,0.519532 0.84765,0.691407 0.34375,0.167969 0.73828,0.25 1.19532,0.257812 0.27343,0 0.53906,-0.03906 0.80468,-0.109375 0.26172,-0.07422 0.50782,-0.183594 0.73438,-0.328125 0.23047,-0.148437 0.42578,-0.328125 0.59375,-0.550781 l 0.0234,0 0,0.625 c 0,0.449219 -0.0781,0.839844 -0.23438,1.164062 -0.15625,0.328126 -0.38281,0.578126 -0.67578,0.753907 -0.29297,0.175781 -0.64453,0.265625 -1.05859,0.265625 -0.21485,0 -0.41016,-0.01172 -0.59375,-0.03125 -0.1875,-0.01953 -0.36719,-0.05469 -0.53907,-0.101563 -0.17968,-0.04687 -0.35937,-0.105469 -0.54687,-0.175781 -0.1875,-0.07422 -0.39453,-0.164062 -0.61719,-0.265625 l -0.125,1.085937 c 0.33594,0.113282 0.63672,0.207032 0.89453,0.269532 0.26172,0.0625 0.50391,0.105468 0.72656,0.132812 0.21875,0.02344 0.44141,0.03516 0.66407,0.03516 0.75781,-0.0039 1.3789,-0.121093 1.86328,-0.359374 0.48828,-0.238282 0.84375,-0.582032 1.07422,-1.035157 0.23047,-0.457031 0.34375,-1.003906 0.34375,-1.652343 l 0,-6.089844"
       id="path73"
       inkscape:connector-curvature="0" />
    <path
       style="fill:#000000;fill-opacity:1;fill-rule:nonzero;stroke:none"
       d="m 188.8125,78.4375 -1.32422,0 0,1.324219 1.32422,0 z m -1.24609,9.113281 1.17187,0 0,-6.367187 -1.17187,0 0,6.367187"
       id="path75"
       inkscape:connector-curvature="0" />
    <path
       style="fill:#000000;fill-opacity:1;fill-rule:nonzero;stroke:none"
       d="m 191.63672,83.753906 c 0.0195,-0.207031 0.0664,-0.414062 0.14062,-0.621094 0.0742,-0.210937 0.17969,-0.398437 0.31641,-0.574218 0.13672,-0.171875 0.30469,-0.308594 0.51172,-0.414063 0.20703,-0.105469 0.45312,-0.160156 0.74219,-0.160156 0.25,0 0.47656,0.04687 0.67187,0.136719 0.19922,0.09375 0.36328,0.21875 0.49609,0.382812 0.13672,0.160156 0.24219,0.351563 0.3086,0.5625 0.0703,0.214844 0.10547,0.441406 0.10547,0.6875 z m 4.05469,2.359375 c -0.0742,0.0625 -0.17969,0.128907 -0.32032,0.199219 -0.13672,0.07422 -0.29687,0.140625 -0.47656,0.210938 -0.17969,0.06641 -0.37109,0.117187 -0.57031,0.160156 -0.19922,0.04297 -0.39453,0.06641 -0.59375,0.06641 -0.28125,0 -0.54297,-0.05078 -0.79297,-0.152344 -0.25,-0.101562 -0.47656,-0.25 -0.66797,-0.4375 -0.19922,-0.1875 -0.35156,-0.410156 -0.46094,-0.667968 -0.11328,-0.261719 -0.17187,-0.546876 -0.17187,-0.863282 l 4.54297,0 c 0,-0.515625 -0.0469,-0.992187 -0.14063,-1.425781 -0.0977,-0.4375 -0.2539,-0.816406 -0.46875,-1.140625 -0.21875,-0.324219 -0.5039,-0.574219 -0.86719,-0.753906 -0.35937,-0.179688 -0.80468,-0.273438 -1.33203,-0.273438 -0.45312,0 -0.85937,0.08203 -1.22656,0.234375 -0.36328,0.160157 -0.67578,0.378907 -0.94141,0.667969 -0.26171,0.285156 -0.46093,0.625 -0.60156,1.019531 -0.14062,0.390625 -0.21094,0.824219 -0.21484,1.296875 0,0.519532 0.0664,0.992188 0.19922,1.414063 0.1289,0.421875 0.33203,0.78125 0.60156,1.085937 0.27344,0.300782 0.61328,0.535156 1.02734,0.699219 0.41407,0.164063 0.90235,0.242187 1.46875,0.246094 0.34375,-0.0039 0.64063,-0.02734 0.88672,-0.07031 0.24219,-0.04687 0.45313,-0.101562 0.63281,-0.164062 0.17969,-0.0625 0.33985,-0.121094 0.48829,-0.179688 l 0,-1.171875"
       id="path77"
       inkscape:connector-curvature="0" />
  </g>
</svg>
