<?xml version="1.0" encoding="UTF-8" standalone="no"?>
<!-- Created with Inkscape (http://www.inkscape.org/) -->

<svg
   xmlns:dc="http://purl.org/dc/elements/1.1/"
   xmlns:cc="http://creativecommons.org/ns#"
   xmlns:rdf="http://www.w3.org/1999/02/22-rdf-syntax-ns#"
   xmlns:svg="http://www.w3.org/2000/svg"
   xmlns="http://www.w3.org/2000/svg"
   xmlns:sodipodi="http://sodipodi.sourceforge.net/DTD/sodipodi-0.dtd"
   xmlns:inkscape="http://www.inkscape.org/namespaces/inkscape"
   version="1.1"
   width="195.73001pt"
   height="90.440002pt"
   viewBox="0 0 195.73001 90.440002"
   id="svg4215"
   inkscape:version="0.48.3.1 r9886"
   sodipodi:docname="kit_logo_en_4c_positiv.svg">
  <sodipodi:namedview
     pagecolor="#ffffff"
     bordercolor="#666666"
     borderopacity="1"
     objecttolerance="10"
     gridtolerance="10"
     guidetolerance="10"
     inkscape:pageopacity="0"
     inkscape:pageshadow="2"
     inkscape:window-width="1236"
     inkscape:window-height="810"
     id="namedview47"
     showgrid="false"
     inkscape:zoom="1.3406223"
     inkscape:cx="177.33274"
     inkscape:cy="56.525002"
     inkscape:window-x="0"
     inkscape:window-y="0"
     inkscape:window-maximized="0"
     inkscape:current-layer="svg4215" />
  <metadata
     id="metadata4304">
    <rdf:RDF>
      <cc:Work
         rdf:about="">
        <dc:format>image/svg+xml</dc:format>
        <dc:type
           rdf:resource="http://purl.org/dc/dcmitype/StillImage" />
        <dc:title />
      </cc:Work>
    </rdf:RDF>
  </metadata>
  <defs
     id="defs4302" />
  <g
     id="g3833">
    <path
       d="m 122.32031,70.175781 -21.375,0 -25.406248,-27.324219 0,-15.605468 L 100.17188,0 122.16406,0 93.820312,35.320312 122.32031,70.175781"
       id="path4218"
       style="fill:#000000;fill-opacity:1;fill-rule:nonzero;stroke:none"
       inkscape:connector-curvature="0" />
    <path
       d="m 125.56641,0.0546875 19.20703,0 0,70.1093745 -19.20703,0 z m 0,0"
       id="path4220"
       style="fill:#000000;fill-opacity:1;fill-rule:nonzero;stroke:none"
       inkscape:connector-curvature="0" />
    <path
       d="m 195.73047,0.0507812 -46.31641,0 0,15.8281248 13.5586,0 0,54.351563 19.20703,0 0,-54.351563 13.55078,0 0,-15.8281248"
       id="path4222"
       style="fill:#000000;fill-opacity:1;fill-rule:nonzero;stroke:none"
       inkscape:connector-curvature="0" />
    <path
       d="m 70.953125,70.167969 -0.01172,-0.02344 0,0.01172 0.01172,0.01172"
       id="path4224"
       style="fill:#000000;fill-opacity:1;fill-rule:nonzero;stroke:none"
       inkscape:connector-curvature="0" />
    <path
       d="m 70.941406,70.164062 0,-0.0078 -0.0039,-0.0039 0.0039,0.01172"
       id="path4226"
       style="fill:#000000;fill-opacity:1;fill-rule:nonzero;stroke:none"
       inkscape:connector-curvature="0" />
    <path
       d="M 16.121094,25.707031 C 12.445312,30.15625 9.3125,35.070312 6.808594,40.335938 L 70.941406,70.175781 16.121094,25.707031"
       id="path4228"
       style="fill:#009682;fill-opacity:1;fill-rule:nonzero;stroke:none"
       inkscape:connector-curvature="0" />
    <path
       d="M 70.933594,70.144531 41.007812,6.554688 c -5.28125,2.433593 -10.207031,5.496093 -14.683593,9.101562 l 44.617187,54.511719 -0.0078,-0.02344"
       id="path4230"
       style="fill:#009682;fill-opacity:1;fill-rule:nonzero;stroke:none"
       inkscape:connector-curvature="0" />
    <path
       d="m 70.9375,70.152344 0.0039,0.0039 0,-0.01172 -0.0078,-0.01563 0.0039,0.02344"
       id="path4232"
       style="fill:#000000;fill-opacity:1;fill-rule:nonzero;stroke:none"
       inkscape:connector-curvature="0" />
    <path
       d="m 70.9375,70.152344 0.0039,0.0039 0,-0.01172 -0.0078,-0.01563 0.0039,0.02344"
       id="path4234"
       style="fill:#000000;fill-opacity:1;fill-rule:nonzero;stroke:none"
       inkscape:connector-curvature="0" />
    <path
       d="M 2.21875,52.996094 C 0.808594,58.492188 0.0546875,64.25 0.0234375,70.175781 l 70.8945315,0 L 2.21875,52.996094"
       id="path4236"
       style="fill:#009682;fill-opacity:1;fill-rule:nonzero;stroke:none"
       inkscape:connector-curvature="0" />
    <path
       d="m 70.941406,70.164062 0.03516,-70.042968 c -0.179687,-0.003906 -0.355468,-0.015625 -0.53125,-0.015625 -5.710937,0 -11.253906,0.695312 -16.570312,1.980469 l 17.058594,68.058593 0.0078,0.01953"
       id="path4238"
       style="fill:#000000;fill-opacity:1;fill-rule:nonzero;stroke:none"
       inkscape:connector-curvature="0" />
    <path
       d="m 0,78.65625 1.28125,0 0,3.933594 3.816406,-3.933594 1.703125,0 -4.199219,4.226562 4.53125,4.714844 -1.871093,0 -3.980469,-4.382812 0,4.382812 -1.28125,0 0,-8.941406"
       id="path4240"
       style="fill:#000000;fill-opacity:1;fill-rule:nonzero;stroke:none"
       inkscape:connector-curvature="0" />
    <path
       d="m 12.128906,84.484375 c -0.257812,0 -0.511718,-0.02734 -0.769531,-0.02734 -0.652344,0 -2.265625,0.105469 -2.265625,1.257813 0,0.691406 0.664062,1.0625 1.214844,1.0625 1.191406,0 1.820312,-0.742188 1.820312,-1.714844 z M 8.554688,81.527344 C 9.15625,81.167969 9.875,80.914062 10.707031,80.914062 c 1.871094,0 2.625,0.917969 2.625,2.699219 l 0,2.703125 c 0,0.742188 0.02344,1.089844 0.05078,1.28125 l -1.128906,0 0,-0.847656 -0.02344,0 c -0.28125,0.398438 -0.921875,1 -2.023438,1 -1.410156,0 -2.394531,-0.613281 -2.394531,-2.035156 0,-1.640625 1.792969,-2.152344 3.035156,-2.152344 0.472656,0 0.804688,0 1.28125,0.02734 0,-1.128906 -0.410156,-1.703125 -1.613281,-1.703125 -0.679687,0 -1.410156,0.253906 -1.898437,0.664062 l -0.0625,-1.023437"
       id="path4242"
       style="fill:#000000;fill-opacity:1;fill-rule:nonzero;stroke:none"
       inkscape:connector-curvature="0" />
    <path
       d="m 15.28125,81.066406 1.128906,0 0,1.011719 0.02344,0 c 0.320312,-0.679687 1.011718,-1.164063 1.703125,-1.164063 0.359375,0 0.539062,0.03516 0.792969,0.08594 l 0,1.078125 c -0.214844,-0.08984 -0.460938,-0.117187 -0.664063,-0.117187 -1.074219,0 -1.78125,1.023437 -1.78125,2.664062 l 0,2.972656 -1.203125,0 0,-6.53125"
       id="path4244"
       style="fill:#000000;fill-opacity:1;fill-rule:nonzero;stroke:none"
       inkscape:connector-curvature="0" />
    <path
       d="m 20.261719,77.992188 1.207031,0 0,9.605468 -1.207031,0 z m 0,0"
       id="path4246"
       style="fill:#000000;fill-opacity:1;fill-rule:nonzero;stroke:none"
       inkscape:connector-curvature="0" />
    <path
       d="m 23.203125,86.316406 c 0.472656,0.308594 1.152344,0.460938 1.496094,0.460938 0.550781,0 1.230469,-0.230469 1.230469,-0.933594 0,-1.191406 -2.828126,-1.089844 -2.828126,-2.921875 0,-1.355469 1.007813,-2.007813 2.304688,-2.007813 0.5625,0 1.023438,0.113282 1.496094,0.253907 l -0.101563,1.050781 c -0.269531,-0.167969 -0.984375,-0.332031 -1.269531,-0.332031 -0.613281,0 -1.148438,0.253906 -1.148438,0.792969 0,1.332031 2.828126,0.949218 2.828126,3.035156 0,1.394531 -1.113282,2.035156 -2.28125,2.035156 -0.613282,0 -1.242188,-0.0625 -1.792969,-0.359375 l 0.06641,-1.074219"
       id="path4248"
       style="fill:#000000;fill-opacity:1;fill-rule:nonzero;stroke:none"
       inkscape:connector-curvature="0" />
    <path
       d="m 28.671875,81.066406 1.125,0 0,1.011719 0.02734,0 c 0.320312,-0.679687 1.011719,-1.164063 1.703125,-1.164063 0.359375,0 0.539062,0.03516 0.792968,0.08594 l 0,1.078125 c -0.21875,-0.08984 -0.460937,-0.117187 -0.664062,-0.117187 -1.078125,0 -1.78125,1.023437 -1.78125,2.664062 l 0,2.972656 -1.203125,0 0,-6.53125"
       id="path4250"
       style="fill:#000000;fill-opacity:1;fill-rule:nonzero;stroke:none"
       inkscape:connector-curvature="0" />
    <path
       d="m 39.351562,87.597656 -1.164062,0 0,-1.039062 -0.02734,0 C 37.800781,87.300781 36.929688,87.75 36.023438,87.75 c -1.691407,0 -2.449219,-1.050781 -2.449219,-2.804688 l 0,-3.878906 1.207031,0 0,3.378906 c 0,1.523438 0.332031,2.265626 1.382812,2.332032 1.367188,0 1.984376,-1.101563 1.984376,-2.691406 l 0,-3.019532 1.203124,0 0,6.53125"
       id="path4252"
       style="fill:#000000;fill-opacity:1;fill-rule:nonzero;stroke:none"
       inkscape:connector-curvature="0" />
    <path
       d="m 41.332031,77.992188 1.207031,0 0,4.007812 0.02344,0 c 0.4375,-0.691406 1.191406,-1.085938 2.101562,-1.085938 1.691407,0 2.445313,1.046876 2.445313,2.800782 l 0,3.882812 -1.203125,0 0,-3.382812 c 0,-1.523438 -0.332031,-2.265625 -1.382812,-2.328125 -1.371094,0 -1.984376,1.097656 -1.984376,2.6875 l 0,3.023437 -1.207031,0 0,-9.605468"
       id="path4254"
       style="fill:#000000;fill-opacity:1;fill-rule:nonzero;stroke:none"
       inkscape:connector-curvature="0" />
    <path
       d="m 53.351562,83.703125 c 0,-1 -0.589843,-1.816406 -1.625,-1.816406 -1.179687,0 -1.667968,0.972656 -1.757812,1.816406 z m 0.78125,3.625 C 53.671875,87.496094 53.148438,87.75 52.070312,87.75 c -2.316406,0 -3.378906,-1.410156 -3.378906,-3.535156 0,-1.933594 1.214844,-3.300782 3.058594,-3.300782 2.175781,0 2.882812,1.585938 2.882812,3.6875 l -4.664062,0 c 0,1.292969 1.011719,2.175782 2.152344,2.175782 0.796875,0 1.71875,-0.410156 2.011718,-0.652344 l 0,1.203125"
       id="path4256"
       style="fill:#000000;fill-opacity:1;fill-rule:nonzero;stroke:none"
       inkscape:connector-curvature="0" />
    <path
       d="m 59.921875,78.65625 1.28125,0 0,8.941406 -1.28125,0 z m 0,0"
       id="path4258"
       style="fill:#000000;fill-opacity:1;fill-rule:nonzero;stroke:none"
       inkscape:connector-curvature="0" />
    <path
       d="m 63.316406,81.066406 1.164063,0 0,1.035156 0.02734,0 c 0.355469,-0.742187 1.226563,-1.1875 2.136719,-1.1875 1.691407,0 2.445313,1.046876 2.445313,2.800782 l 0,3.882812 -1.203125,0 0,-3.382812 c 0,-1.523438 -0.332031,-2.265625 -1.382813,-2.328125 -1.371094,0 -1.984375,1.097656 -1.984375,2.6875 l 0,3.023437 -1.203125,0 0,-6.53125"
       id="path4260"
       style="fill:#000000;fill-opacity:1;fill-rule:nonzero;stroke:none"
       inkscape:connector-curvature="0" />
    <path
       d="m 70.695312,86.316406 c 0.472657,0.308594 1.152344,0.460938 1.5,0.460938 0.550782,0 1.226563,-0.230469 1.226563,-0.933594 0,-1.191406 -2.828125,-1.089844 -2.828125,-2.921875 0,-1.355469 1.011719,-2.007813 2.304688,-2.007813 0.566406,0 1.023437,0.113282 1.5,0.253907 l -0.105469,1.050781 c -0.265625,-0.167969 -0.984375,-0.332031 -1.265625,-0.332031 -0.617188,0 -1.152344,0.253906 -1.152344,0.792969 0,1.332031 2.832031,0.949218 2.832031,3.035156 0,1.394531 -1.117187,2.035156 -2.28125,2.035156 -0.617187,0 -1.242187,-0.0625 -1.792969,-0.359375 l 0.0625,-1.074219"
       id="path4262"
       style="fill:#000000;fill-opacity:1;fill-rule:nonzero;stroke:none"
       inkscape:connector-curvature="0" />
    <path
       d="m 79.808594,82.039062 -1.730469,0 0,3.570313 c 0,0.757813 0.460937,1.167969 1.011719,1.167969 0.371094,0 0.640625,-0.117188 0.820312,-0.230469 l 0,1.023437 C 79.640625,87.648438 79.269531,87.75 78.886719,87.75 77.644531,87.75 76.875,87.160156 76.875,85.855469 l 0,-3.816407 -1.472656,0 0,-0.972656 1.472656,0 0,-1.511718 1.203125,-0.386719 0,1.898437 1.730469,0 0,0.972656"
       id="path4264"
       style="fill:#000000;fill-opacity:1;fill-rule:nonzero;stroke:none"
       inkscape:connector-curvature="0" />
    <path
       d="m 81.28125,81.066406 1.203125,0 0,6.53125 -1.203125,0 z m 1.28125,-1.460937 -1.359375,0 0,-1.355469 1.359375,0 0,1.355469"
       id="path4266"
       style="fill:#000000;fill-opacity:1;fill-rule:nonzero;stroke:none"
       inkscape:connector-curvature="0" />
    <path
       d="m 88.113281,82.039062 -1.730469,0 0,3.570313 c 0,0.757813 0.460938,1.167969 1.011719,1.167969 0.375,0 0.640625,-0.117188 0.820313,-0.230469 l 0,1.023437 C 87.945312,87.648438 87.574219,87.75 87.191406,87.75 c -1.242187,0 -2.011718,-0.589844 -2.011718,-1.894531 l 0,-3.816407 -1.472657,0 0,-0.972656 1.472657,0 0,-1.511718 1.203124,-0.386719 0,1.898437 1.730469,0 0,0.972656"
       id="path4268"
       style="fill:#000000;fill-opacity:1;fill-rule:nonzero;stroke:none"
       inkscape:connector-curvature="0" />
    <path
       d="m 95.234375,87.597656 -1.167969,0 0,-1.039062 -0.02344,0 C 93.683594,87.300781 92.8125,87.75 91.902344,87.75 c -1.6875,0 -2.445313,-1.050781 -2.445313,-2.804688 l 0,-3.878906 1.203125,0 0,3.378906 c 0,1.523438 0.332032,2.265626 1.382813,2.332032 1.371093,0 1.988281,-1.101563 1.988281,-2.691406 l 0,-3.019532 1.203125,0 0,6.53125"
       id="path4270"
       style="fill:#000000;fill-opacity:1;fill-rule:nonzero;stroke:none"
       inkscape:connector-curvature="0" />
    <path
       d="m 100.78516,82.039062 -1.730472,0 0,3.570313 c 0,0.757813 0.460937,1.167969 1.011722,1.167969 0.37109,0 0.64062,-0.117188 0.82031,-0.230469 l 0,1.023437 c -0.26953,0.07813 -0.64063,0.179688 -1.023439,0.179688 -1.242187,0 -2.011719,-0.589844 -2.011719,-1.894531 l 0,-3.816407 -1.472656,0 0,-0.972656 1.472656,0 0,-1.511718 1.203126,-0.386719 0,1.898437 1.730472,0 0,0.972656"
       id="path4272"
       style="fill:#000000;fill-opacity:1;fill-rule:nonzero;stroke:none"
       inkscape:connector-curvature="0" />
    <path
       d="m 106.37891,83.703125 c 0,-1 -0.58985,-1.816406 -1.625,-1.816406 -1.17969,0 -1.66407,0.972656 -1.75391,1.816406 z m 0.78125,3.625 c -0.46094,0.167969 -0.98438,0.421875 -2.0586,0.421875 -2.32031,0 -3.38281,-1.410156 -3.38281,-3.535156 0,-1.933594 1.21875,-3.300782 3.05859,-3.300782 2.17969,0 2.88282,1.585938 2.88282,3.6875 l -4.66016,0 c 0,1.292969 1.01172,2.175782 2.14844,2.175782 0.79297,0 1.71875,-0.410156 2.01172,-0.652344 l 0,1.203125"
       id="path4274"
       style="fill:#000000;fill-opacity:1;fill-rule:nonzero;stroke:none"
       inkscape:connector-curvature="0" />
    <path
       d="m 115.73047,86.777344 c 1.41016,0 2.03516,-1.28125 2.03516,-2.445313 0,-1.242187 -0.75782,-2.445312 -2.03516,-2.445312 -1.29297,0 -2.05078,1.203125 -2.05078,2.445312 0,1.164063 0.6289,2.445313 2.05078,2.445313 z m 0,-5.863282 c 1.98437,0 3.31641,1.433594 3.31641,3.417969 0,1.871094 -1.35938,3.417969 -3.31641,3.417969 -1.97266,0 -3.33203,-1.546875 -3.33203,-3.417969 0,-1.984375 1.33203,-3.417969 3.33203,-3.417969"
       id="path4276"
       style="fill:#000000;fill-opacity:1;fill-rule:nonzero;stroke:none"
       inkscape:connector-curvature="0" />
    <path
       d="m 121.28906,82.039062 -1.53906,0 0,-0.972656 1.53906,0 0,-0.601562 c 0,-1.589844 0.40625,-2.628906 2.1875,-2.628906 0.3086,0 0.5625,0.03906 0.80469,0.07812 l -0.0508,0.972657 c -0.13672,-0.05078 -0.36719,-0.07422 -0.57422,-0.07422 -1.03906,0 -1.16406,0.664062 -1.16406,1.546875 l 0,0.707031 1.73047,0 0,0.972656 -1.73047,0 0,5.558594 -1.20313,0 0,-5.558594"
       id="path4278"
       style="fill:#000000;fill-opacity:1;fill-rule:nonzero;stroke:none"
       inkscape:connector-curvature="0" />
    <path
       d="m 130.94141,79.785156 -2.77735,0 0,-1.128906 6.83985,0 0,1.128906 -2.78125,0 0,7.8125 -1.28125,0 0,-7.8125"
       id="path4280"
       style="fill:#000000;fill-opacity:1;fill-rule:nonzero;stroke:none"
       inkscape:connector-curvature="0" />
    <path
       d="m 139.46094,83.703125 c 0,-1 -0.58594,-1.816406 -1.625,-1.816406 -1.17969,0 -1.66797,0.972656 -1.75391,1.816406 z m 0.78125,3.625 c -0.46094,0.167969 -0.98438,0.421875 -2.0625,0.421875 -2.31641,0 -3.37891,-1.410156 -3.37891,-3.535156 0,-1.933594 1.21484,-3.300782 3.05859,-3.300782 2.17969,0 2.88282,1.585938 2.88282,3.6875 l -4.66016,0 c 0,1.292969 1.01172,2.175782 2.14844,2.175782 0.79687,0 1.71875,-0.410156 2.01172,-0.652344 l 0,1.203125"
       id="path4282"
       style="fill:#000000;fill-opacity:1;fill-rule:nonzero;stroke:none"
       inkscape:connector-curvature="0" />
    <path
       d="m 146.55859,82.167969 c -0.46093,-0.191407 -0.92187,-0.28125 -1.30859,-0.28125 -1.34375,0 -2.10156,1.203125 -2.10156,2.445312 0,1.164063 0.6289,2.445313 2.17968,2.445313 0.41016,0 0.92188,-0.128906 1.29297,-0.371094 l 0.0898,1.074219 c -0.4961,0.230469 -1.07422,0.269531 -1.51172,0.269531 -1.97266,0 -3.33203,-1.546875 -3.33203,-3.417969 0,-1.984375 1.33593,-3.417969 3.33203,-3.417969 0.48828,0 1.11328,0.113282 1.46094,0.253907 l -0.10157,1"
       id="path4284"
       style="fill:#000000;fill-opacity:1;fill-rule:nonzero;stroke:none"
       inkscape:connector-curvature="0" />
    <path
       d="m 147.98828,77.992188 1.20703,0 0,4.007812 0.0273,0 c 0.43359,-0.691406 1.1875,-1.085938 2.09765,-1.085938 1.69141,0 2.44922,1.046876 2.44922,2.800782 l 0,3.882812 -1.20703,0 0,-3.382812 c 0,-1.523438 -0.33203,-2.265625 -1.38281,-2.328125 -1.3711,0 -1.98438,1.097656 -1.98438,2.6875 l 0,3.023437 -1.20703,0 0,-9.605468"
       id="path4286"
       style="fill:#000000;fill-opacity:1;fill-rule:nonzero;stroke:none"
       inkscape:connector-curvature="0" />
    <path
       d="m 155.73437,81.066406 1.16407,0 0,1.035156 0.0273,0 c 0.35938,-0.742187 1.23047,-1.1875 2.13672,-1.1875 1.69141,0 2.44922,1.046876 2.44922,2.800782 l 0,3.882812 -1.20313,0 0,-3.382812 c 0,-1.523438 -0.33593,-2.265625 -1.38672,-2.328125 -1.37109,0 -1.98437,1.097656 -1.98437,2.6875 l 0,3.023437 -1.20313,0 0,-6.53125"
       id="path4288"
       style="fill:#000000;fill-opacity:1;fill-rule:nonzero;stroke:none"
       inkscape:connector-curvature="0" />
    <path
       d="m 166.39844,86.777344 c 1.41015,0 2.03515,-1.28125 2.03515,-2.445313 0,-1.242187 -0.7539,-2.445312 -2.03515,-2.445312 -1.29297,0 -2.05078,1.203125 -2.05078,2.445312 0,1.164063 0.6289,2.445313 2.05078,2.445313 z m 0,-5.863282 c 1.98437,0 3.3164,1.433594 3.3164,3.417969 0,1.871094 -1.35937,3.417969 -3.3164,3.417969 -1.97266,0 -3.33203,-1.546875 -3.33203,-3.417969 0,-1.984375 1.33203,-3.417969 3.33203,-3.417969"
       id="path4290"
       style="fill:#000000;fill-opacity:1;fill-rule:nonzero;stroke:none"
       inkscape:connector-curvature="0" />
    <path
       d="m 171.38672,77.992188 1.20312,0 0,9.605468 -1.20312,0 z m 0,0"
       id="path4292"
       style="fill:#000000;fill-opacity:1;fill-rule:nonzero;stroke:none"
       inkscape:connector-curvature="0" />
    <path
       d="m 177.58984,86.777344 c 1.40625,0 2.03516,-1.28125 2.03516,-2.445313 0,-1.242187 -0.75391,-2.445312 -2.03516,-2.445312 -1.29297,0 -2.05078,1.203125 -2.05078,2.445312 0,1.164063 0.62891,2.445313 2.05078,2.445313 z m 0,-5.863282 c 1.98438,0 3.31641,1.433594 3.31641,3.417969 0,1.871094 -1.35938,3.417969 -3.31641,3.417969 -1.97265,0 -3.33203,-1.546875 -3.33203,-3.417969 0,-1.984375 1.33203,-3.417969 3.33203,-3.417969"
       id="path4294"
       style="fill:#000000;fill-opacity:1;fill-rule:nonzero;stroke:none"
       inkscape:connector-curvature="0" />
    <path
       d="m 187.125,84.40625 c 0,-1.355469 -0.62891,-2.519531 -1.91016,-2.519531 -1.21484,0 -1.82031,1.316406 -1.82031,2.429687 0,1.230469 0.69531,2.308594 1.82031,2.308594 1.125,0 1.91016,-1 1.91016,-2.21875 z m 1.19922,2.910156 c 0,1.984375 -1.02344,3.125 -3.36719,3.125 -0.69141,0 -1.29297,-0.08984 -2.34375,-0.449218 l 0.12891,-1.113282 c 0.92187,0.421875 1.47265,0.585938 2.35937,0.585938 1.26563,0 2.02344,-0.855469 2.02344,-2.238282 l 0,-0.640624 -0.0273,0 c -0.51172,0.679687 -1.35938,1.011718 -2.19141,1.011718 -1.87109,0 -2.79297,-1.523437 -2.79297,-3.214844 0,-1.679687 0.94922,-3.46875 2.92188,-3.46875 1.15234,0 1.79296,0.421876 2.15234,1.125 l 0.0234,0 0,-0.972656 1.11328,0 0,6.25"
       id="path4296"
       style="fill:#000000;fill-opacity:1;fill-rule:nonzero;stroke:none"
       inkscape:connector-curvature="0" />
    <path
       d="m 189.92187,89.363281 c 0.15235,0.05078 0.35547,0.101563 0.5625,0.101563 1.07422,0 1.4336,-1.484375 1.4336,-1.613282 0,-0.140624 -0.15235,-0.472656 -0.23047,-0.691406 l -2.21484,-6.09375 1.3164,0 1.75391,5.402344 0.0273,0 1.79297,-5.402344 1.21484,0 -2.40625,6.671875 c -0.44531,1.253907 -0.92187,2.703125 -2.51171,2.703125 -0.38282,0 -0.59766,-0.05078 -0.81641,-0.08984 l 0.0781,-0.988281"
       id="path4298"
       style="fill:#000000;fill-opacity:1;fill-rule:nonzero;stroke:none"
       inkscape:connector-curvature="0" />
  </g>
</svg>
