<?xml version="1.0" encoding="UTF-8"?>
<svg xmlns="http://www.w3.org/2000/svg" xmlns:xlink="http://www.w3.org/1999/xlink" width="196.190002pt" height="90.330002pt" viewBox="0 0 196.190002 90.330002" version="1.1">
<defs>
<clipPath id="clip1">
  <path d="M 0.0078125 0.03125 L 196.1875 0.03125 L 196.1875 90.320312 L 0.0078125 90.320312 Z M 0.0078125 0.03125 "/>
</clipPath>
<clipPath id="clip3">
  <path d="M 0.0078125 0.03125 L 196.1875 0.03125 L 196.1875 90.320312 L 0.0078125 90.320312 Z M 0.0078125 0.03125 "/>
</clipPath>
<clipPath id="clip2">
  <rect width="197" height="91"/>
</clipPath>
<g id="surface5" clip-path="url(#clip2)">
<g clip-path="url(#clip3)" clip-rule="nonzero">
<path style=" stroke:none;fill-rule:evenodd;fill:rgb(0%,0%,0%);fill-opacity:1;" d="M 122.386719 70.132812 L 101.003906 70.132812 L 75.585938 42.847656 L 75.585938 27.222656 L 100.210938 0.00390625 L 122.242188 0.00390625 L 93.875 35.285156 Z M 144.851562 70.132812 L 125.625 70.132812 L 125.625 0.078125 L 144.851562 0.078125 Z M 195.753906 0.078125 L 149.457031 0.078125 L 149.457031 15.847656 L 162.992188 15.847656 L 162.992188 70.207031 L 182.21875 70.207031 L 182.21875 15.847656 L 195.753906 15.847656 L 195.753906 0.078125 "/>
<path style=" stroke:none;fill-rule:evenodd;fill:rgb(0%,0%,0%);fill-opacity:1;" d="M 16.1875 25.710938 C 12.515625 30.171875 9.34375 35.070312 6.898438 40.324219 L 70.976562 70.132812 L 16.1875 25.710938 "/>
<path style=" stroke:none;fill-rule:evenodd;fill:rgb(0%,0%,0%);fill-opacity:1;" d="M 70.976562 70.132812 L 41.097656 6.558594 C 35.769531 9.003906 30.875 12.03125 26.410156 15.628906 L 70.976562 70.132812 "/>
<path style=" stroke:none;fill-rule:evenodd;fill:rgb(0%,0%,0%);fill-opacity:1;" d="M 70.976562 70.132812 L 71.050781 0.078125 L 70.472656 0.078125 C 64.785156 0.078125 59.242188 0.796875 53.914062 2.09375 L 70.976562 70.132812 "/>
<path style=" stroke:none;fill-rule:evenodd;fill:rgb(0%,0%,0%);fill-opacity:1;" d="M 2.289062 52.996094 C 0.847656 58.46875 0.128906 64.230469 0.0585938 70.132812 L 70.976562 70.132812 L 2.289062 52.996094 "/>
<path style=" stroke:none;fill-rule:nonzero;fill:rgb(0%,0%,0%);fill-opacity:1;" d="M 0.0078125 87.550781 L 1.257812 87.550781 L 1.257812 83.28125 L 5.136719 87.550781 L 6.960938 87.550781 L 2.542969 82.957031 L 6.636719 78.839844 L 4.976562 78.839844 L 1.257812 82.671875 L 1.257812 78.839844 L 0.0078125 78.839844 L 0.0078125 87.550781 "/>
<path style=" stroke:none;fill-rule:nonzero;fill:rgb(0%,0%,0%);fill-opacity:1;" d="M 11.867188 85.078125 C 11.867188 85.398438 11.800781 85.683594 11.664062 85.933594 C 11.53125 86.1875 11.332031 86.382812 11.070312 86.53125 C 10.808594 86.675781 10.480469 86.75 10.09375 86.753906 C 9.957031 86.753906 9.820312 86.730469 9.683594 86.683594 C 9.542969 86.640625 9.417969 86.574219 9.300781 86.488281 C 9.183594 86.398438 9.089844 86.289062 9.019531 86.164062 C 8.949219 86.035156 8.910156 85.882812 8.90625 85.714844 C 8.914062 85.492188 8.96875 85.304688 9.078125 85.15625 C 9.183594 85.007812 9.328125 84.890625 9.503906 84.800781 C 9.679688 84.710938 9.863281 84.644531 10.066406 84.597656 C 10.265625 84.554688 10.457031 84.527344 10.644531 84.511719 C 10.828125 84.496094 10.984375 84.492188 11.117188 84.492188 C 11.242188 84.492188 11.367188 84.496094 11.492188 84.503906 C 11.617188 84.511719 11.742188 84.515625 11.867188 84.519531 Z M 8.445312 82.632812 C 8.605469 82.5 8.789062 82.382812 8.988281 82.289062 C 9.191406 82.191406 9.402344 82.117188 9.625 82.0625 C 9.847656 82.011719 10.070312 81.984375 10.292969 81.984375 C 10.683594 81.984375 10.992188 82.046875 11.222656 82.167969 C 11.453125 82.292969 11.617188 82.480469 11.71875 82.726562 C 11.820312 82.972656 11.867188 83.277344 11.867188 83.644531 C 11.714844 83.636719 11.574219 83.628906 11.441406 83.628906 C 11.308594 83.625 11.175781 83.621094 11.042969 83.621094 L 10.617188 83.621094 C 10.371094 83.621094 10.113281 83.640625 9.847656 83.683594 C 9.574219 83.726562 9.3125 83.796875 9.054688 83.898438 C 8.796875 83.996094 8.5625 84.125 8.351562 84.285156 C 8.144531 84.449219 7.976562 84.648438 7.851562 84.882812 C 7.726562 85.121094 7.664062 85.398438 7.660156 85.714844 C 7.664062 86.175781 7.765625 86.554688 7.960938 86.84375 C 8.15625 87.140625 8.429688 87.355469 8.78125 87.496094 C 9.128906 87.632812 9.53125 87.699219 9.992188 87.699219 C 10.261719 87.699219 10.503906 87.664062 10.714844 87.601562 C 10.929688 87.539062 11.117188 87.460938 11.28125 87.359375 C 11.441406 87.257812 11.578125 87.152344 11.695312 87.042969 C 11.804688 86.929688 11.898438 86.828125 11.964844 86.726562 L 11.992188 86.726562 L 11.992188 87.550781 L 13.089844 87.550781 C 13.082031 87.492188 13.074219 87.40625 13.066406 87.304688 C 13.058594 87.203125 13.050781 87.066406 13.046875 86.90625 C 13.042969 86.742188 13.039062 86.542969 13.039062 86.300781 L 13.039062 83.667969 C 13.042969 83.089844 12.957031 82.605469 12.78125 82.214844 C 12.605469 81.824219 12.332031 81.53125 11.953125 81.332031 C 11.578125 81.136719 11.085938 81.035156 10.480469 81.035156 C 10.074219 81.039062 9.699219 81.09375 9.347656 81.203125 C 9 81.3125 8.675781 81.457031 8.382812 81.636719 L 8.445312 82.632812 "/>
<path style=" stroke:none;fill-rule:nonzero;fill:rgb(0%,0%,0%);fill-opacity:1;" d="M 14.949219 87.550781 L 16.125 87.550781 L 16.125 84.65625 C 16.125 84.121094 16.199219 83.660156 16.339844 83.273438 C 16.484375 82.886719 16.683594 82.585938 16.945312 82.378906 C 17.203125 82.167969 17.507812 82.0625 17.859375 82.058594 C 17.960938 82.058594 18.066406 82.066406 18.179688 82.082031 C 18.289062 82.097656 18.398438 82.128906 18.507812 82.171875 L 18.507812 81.125 C 18.425781 81.105469 18.347656 81.09375 18.273438 81.078125 C 18.199219 81.066406 18.117188 81.054688 18.03125 81.046875 C 17.949219 81.039062 17.847656 81.035156 17.734375 81.035156 C 17.507812 81.039062 17.285156 81.085938 17.074219 81.183594 C 16.859375 81.277344 16.667969 81.414062 16.492188 81.582031 C 16.320312 81.753906 16.179688 81.949219 16.074219 82.171875 L 16.046875 82.171875 L 16.046875 81.1875 L 14.949219 81.1875 L 14.949219 87.550781 "/>
<path style=" stroke:none;fill-rule:nonzero;fill:rgb(0%,0%,0%);fill-opacity:1;" d="M 19.882812 78.191406 L 21.054688 78.191406 L 21.054688 87.550781 L 19.882812 87.550781 Z M 19.882812 78.191406 "/>
<path style=" stroke:none;fill-rule:nonzero;fill:rgb(0%,0%,0%);fill-opacity:1;" d="M 22.59375 87.351562 C 22.863281 87.492188 23.144531 87.585938 23.441406 87.632812 C 23.738281 87.683594 24.035156 87.703125 24.339844 87.699219 C 24.625 87.699219 24.902344 87.660156 25.164062 87.582031 C 25.429688 87.503906 25.664062 87.378906 25.875 87.21875 C 26.085938 87.054688 26.25 86.851562 26.371094 86.601562 C 26.496094 86.351562 26.558594 86.054688 26.558594 85.714844 C 26.558594 85.425781 26.507812 85.179688 26.410156 84.980469 C 26.308594 84.777344 26.175781 84.605469 26.011719 84.464844 C 25.851562 84.328125 25.671875 84.207031 25.472656 84.105469 C 25.28125 84.007812 25.082031 83.914062 24.886719 83.828125 C 24.691406 83.738281 24.511719 83.652344 24.347656 83.558594 C 24.183594 83.460938 24.054688 83.351562 23.953125 83.222656 C 23.855469 83.097656 23.804688 82.941406 23.800781 82.757812 C 23.804688 82.582031 23.859375 82.4375 23.960938 82.324219 C 24.0625 82.210938 24.199219 82.125 24.367188 82.066406 C 24.535156 82.011719 24.722656 81.984375 24.925781 81.984375 C 24.996094 81.984375 25.089844 81.996094 25.199219 82.011719 C 25.308594 82.03125 25.425781 82.054688 25.546875 82.085938 C 25.671875 82.117188 25.785156 82.152344 25.898438 82.191406 C 26.003906 82.226562 26.09375 82.265625 26.160156 82.308594 L 26.261719 81.285156 C 26.03125 81.214844 25.800781 81.15625 25.5625 81.109375 C 25.328125 81.0625 25.074219 81.039062 24.800781 81.035156 C 24.484375 81.035156 24.191406 81.074219 23.917969 81.15625 C 23.648438 81.234375 23.410156 81.359375 23.207031 81.519531 C 23 81.679688 22.839844 81.882812 22.726562 82.128906 C 22.613281 82.375 22.554688 82.664062 22.554688 82.996094 C 22.554688 83.25 22.609375 83.46875 22.707031 83.65625 C 22.804688 83.839844 22.9375 84 23.101562 84.136719 C 23.265625 84.273438 23.445312 84.394531 23.640625 84.5 C 23.835938 84.601562 24.03125 84.703125 24.226562 84.792969 C 24.421875 84.886719 24.601562 84.984375 24.765625 85.082031 C 24.929688 85.179688 25.058594 85.289062 25.160156 85.414062 C 25.257812 85.53125 25.308594 85.675781 25.3125 85.839844 C 25.308594 86.011719 25.273438 86.15625 25.199219 86.273438 C 25.128906 86.390625 25.035156 86.484375 24.914062 86.554688 C 24.796875 86.625 24.667969 86.675781 24.527344 86.707031 C 24.390625 86.738281 24.25 86.753906 24.113281 86.753906 C 23.996094 86.753906 23.855469 86.734375 23.6875 86.703125 C 23.519531 86.667969 23.34375 86.617188 23.164062 86.550781 C 22.980469 86.484375 22.8125 86.402344 22.652344 86.300781 L 22.59375 87.351562 "/>
<path style=" stroke:none;fill-rule:nonzero;fill:rgb(0%,0%,0%);fill-opacity:1;" d="M 27.910156 87.550781 L 29.082031 87.550781 L 29.082031 84.65625 C 29.085938 84.121094 29.15625 83.660156 29.300781 83.273438 C 29.441406 82.886719 29.644531 82.585938 29.902344 82.378906 C 30.160156 82.167969 30.464844 82.0625 30.816406 82.058594 C 30.917969 82.058594 31.027344 82.066406 31.136719 82.082031 C 31.25 82.097656 31.359375 82.128906 31.46875 82.171875 L 31.46875 81.125 C 31.386719 81.105469 31.304688 81.09375 31.234375 81.078125 C 31.160156 81.066406 31.078125 81.054688 30.992188 81.046875 C 30.90625 81.039062 30.808594 81.035156 30.691406 81.035156 C 30.464844 81.039062 30.246094 81.085938 30.03125 81.183594 C 29.820312 81.277344 29.625 81.414062 29.453125 81.582031 C 29.277344 81.753906 29.140625 81.949219 29.03125 82.171875 L 29.007812 82.171875 L 29.007812 81.1875 L 27.910156 81.1875 L 27.910156 87.550781 "/>
<path style=" stroke:none;fill-rule:nonzero;fill:rgb(0%,0%,0%);fill-opacity:1;" d="M 38.320312 81.1875 L 37.148438 81.1875 L 37.148438 84.132812 C 37.148438 84.519531 37.109375 84.875 37.03125 85.195312 C 36.957031 85.515625 36.839844 85.789062 36.679688 86.023438 C 36.523438 86.253906 36.320312 86.433594 36.078125 86.5625 C 35.835938 86.6875 35.542969 86.75 35.210938 86.753906 C 34.871094 86.730469 34.605469 86.636719 34.40625 86.464844 C 34.210938 86.292969 34.070312 86.042969 33.988281 85.714844 C 33.902344 85.386719 33.863281 84.976562 33.863281 84.480469 L 33.863281 81.1875 L 32.691406 81.1875 L 32.691406 84.96875 C 32.691406 85.539062 32.773438 86.027344 32.941406 86.4375 C 33.109375 86.84375 33.375 87.15625 33.726562 87.371094 C 34.078125 87.589844 34.527344 87.699219 35.074219 87.699219 C 35.371094 87.699219 35.660156 87.652344 35.933594 87.5625 C 36.203125 87.46875 36.449219 87.335938 36.660156 87.160156 C 36.875 86.988281 37.039062 86.78125 37.160156 86.539062 L 37.183594 86.539062 L 37.183594 87.550781 L 38.320312 87.550781 L 38.320312 81.1875 "/>
<path style=" stroke:none;fill-rule:nonzero;fill:rgb(0%,0%,0%);fill-opacity:1;" d="M 40.242188 87.550781 L 41.417969 87.550781 L 41.417969 84.605469 C 41.417969 84.214844 41.453125 83.863281 41.53125 83.542969 C 41.609375 83.222656 41.722656 82.949219 41.882812 82.714844 C 42.039062 82.480469 42.242188 82.300781 42.484375 82.175781 C 42.730469 82.050781 43.019531 81.988281 43.351562 81.984375 C 43.691406 82.003906 43.957031 82.097656 44.15625 82.273438 C 44.355469 82.441406 44.492188 82.691406 44.578125 83.019531 C 44.660156 83.347656 44.703125 83.761719 44.699219 84.253906 L 44.699219 87.550781 L 45.871094 87.550781 L 45.871094 83.769531 C 45.875 83.195312 45.789062 82.707031 45.621094 82.300781 C 45.453125 81.894531 45.191406 81.582031 44.839844 81.363281 C 44.488281 81.148438 44.039062 81.039062 43.488281 81.035156 C 43.039062 81.039062 42.644531 81.128906 42.292969 81.3125 C 41.941406 81.496094 41.65625 81.757812 41.441406 82.097656 L 41.417969 82.097656 L 41.417969 78.191406 L 40.242188 78.191406 L 40.242188 87.550781 "/>
<path style=" stroke:none;fill-rule:nonzero;fill:rgb(0%,0%,0%);fill-opacity:1;" d="M 48.621094 83.757812 C 48.640625 83.546875 48.6875 83.339844 48.761719 83.132812 C 48.835938 82.925781 48.941406 82.734375 49.078125 82.5625 C 49.214844 82.386719 49.382812 82.25 49.589844 82.144531 C 49.796875 82.039062 50.042969 81.988281 50.328125 81.984375 C 50.582031 81.988281 50.808594 82.03125 51.003906 82.125 C 51.203125 82.214844 51.363281 82.34375 51.5 82.503906 C 51.636719 82.667969 51.738281 82.855469 51.808594 83.066406 C 51.878906 83.28125 51.914062 83.511719 51.914062 83.757812 Z M 52.675781 86.117188 C 52.601562 86.175781 52.496094 86.242188 52.355469 86.316406 C 52.21875 86.386719 52.058594 86.457031 51.878906 86.523438 C 51.699219 86.589844 51.507812 86.644531 51.308594 86.683594 C 51.109375 86.730469 50.910156 86.75 50.714844 86.753906 C 50.433594 86.75 50.171875 86.699219 49.917969 86.597656 C 49.667969 86.496094 49.445312 86.351562 49.253906 86.164062 C 49.054688 85.976562 48.902344 85.753906 48.789062 85.492188 C 48.679688 85.234375 48.621094 84.945312 48.621094 84.628906 L 53.164062 84.628906 C 53.164062 84.117188 53.117188 83.640625 53.023438 83.207031 C 52.925781 82.769531 52.773438 82.390625 52.554688 82.066406 C 52.335938 81.742188 52.050781 81.488281 51.6875 81.308594 C 51.328125 81.128906 50.882812 81.039062 50.355469 81.035156 C 49.902344 81.039062 49.496094 81.117188 49.128906 81.273438 C 48.765625 81.429688 48.453125 81.652344 48.1875 81.9375 C 47.925781 82.226562 47.726562 82.566406 47.585938 82.957031 C 47.445312 83.347656 47.375 83.78125 47.371094 84.253906 C 47.371094 84.777344 47.4375 85.246094 47.570312 85.667969 C 47.699219 86.089844 47.902344 86.453125 48.171875 86.753906 C 48.441406 87.058594 48.785156 87.289062 49.199219 87.453125 C 49.613281 87.617188 50.101562 87.699219 50.667969 87.699219 C 51.015625 87.699219 51.308594 87.675781 51.554688 87.628906 C 51.796875 87.582031 52.011719 87.53125 52.191406 87.46875 C 52.367188 87.40625 52.527344 87.34375 52.675781 87.289062 L 52.675781 86.117188 "/>
<path style=" stroke:none;fill-rule:nonzero;fill:rgb(0%,0%,0%);fill-opacity:1;" d="M 54.660156 87.550781 L 55.835938 87.550781 L 55.835938 84.65625 C 55.835938 84.121094 55.910156 83.660156 56.050781 83.273438 C 56.195312 82.886719 56.394531 82.585938 56.65625 82.378906 C 56.910156 82.167969 57.21875 82.0625 57.570312 82.058594 C 57.671875 82.058594 57.777344 82.066406 57.890625 82.082031 C 58.003906 82.097656 58.109375 82.128906 58.21875 82.171875 L 58.21875 81.125 C 58.136719 81.105469 58.058594 81.09375 57.984375 81.078125 C 57.910156 81.066406 57.828125 81.054688 57.742188 81.046875 C 57.660156 81.039062 57.558594 81.035156 57.445312 81.035156 C 57.21875 81.039062 56.996094 81.085938 56.78125 81.183594 C 56.570312 81.277344 56.378906 81.414062 56.207031 81.582031 C 56.03125 81.753906 55.890625 81.949219 55.785156 82.171875 L 55.761719 82.171875 L 55.761719 81.1875 L 54.660156 81.1875 L 54.660156 87.550781 "/>
<path style=" stroke:none;fill-rule:nonzero;fill:rgb(0%,0%,0%);fill-opacity:1;" d="M 63.027344 78.839844 L 64.273438 78.839844 L 64.273438 87.550781 L 63.027344 87.550781 Z M 63.027344 78.839844 "/>
<path style=" stroke:none;fill-rule:nonzero;fill:rgb(0%,0%,0%);fill-opacity:1;" d="M 66.308594 87.550781 L 67.480469 87.550781 L 67.480469 84.605469 C 67.480469 84.214844 67.519531 83.863281 67.597656 83.542969 C 67.671875 83.222656 67.789062 82.949219 67.949219 82.714844 C 68.105469 82.480469 68.308594 82.300781 68.550781 82.175781 C 68.792969 82.050781 69.085938 81.988281 69.417969 81.984375 C 69.757812 82.003906 70.023438 82.097656 70.222656 82.273438 C 70.417969 82.441406 70.558594 82.691406 70.640625 83.019531 C 70.726562 83.347656 70.765625 83.761719 70.765625 84.253906 L 70.765625 87.550781 L 71.9375 87.550781 L 71.9375 83.769531 C 71.941406 83.195312 71.855469 82.707031 71.6875 82.300781 C 71.519531 81.894531 71.253906 81.582031 70.902344 81.363281 C 70.550781 81.148438 70.101562 81.039062 69.554688 81.035156 C 69.257812 81.035156 68.96875 81.082031 68.699219 81.175781 C 68.425781 81.269531 68.179688 81.398438 67.96875 81.574219 C 67.753906 81.746094 67.589844 81.953125 67.46875 82.195312 L 67.445312 82.195312 L 67.445312 81.1875 L 66.308594 81.1875 L 66.308594 87.550781 "/>
<path style=" stroke:none;fill-rule:nonzero;fill:rgb(0%,0%,0%);fill-opacity:1;" d="M 73.324219 87.351562 C 73.59375 87.492188 73.878906 87.585938 74.175781 87.632812 C 74.46875 87.683594 74.769531 87.703125 75.074219 87.699219 C 75.359375 87.699219 75.632812 87.660156 75.898438 87.582031 C 76.160156 87.503906 76.398438 87.378906 76.609375 87.21875 C 76.816406 87.054688 76.984375 86.851562 77.105469 86.601562 C 77.230469 86.351562 77.292969 86.054688 77.292969 85.714844 C 77.292969 85.425781 77.238281 85.179688 77.140625 84.980469 C 77.042969 84.777344 76.910156 84.605469 76.746094 84.464844 C 76.585938 84.328125 76.402344 84.207031 76.207031 84.105469 C 76.011719 84.007812 75.816406 83.914062 75.621094 83.828125 C 75.425781 83.738281 75.246094 83.652344 75.082031 83.558594 C 74.917969 83.460938 74.785156 83.351562 74.6875 83.222656 C 74.589844 83.097656 74.535156 82.941406 74.535156 82.757812 C 74.535156 82.582031 74.59375 82.4375 74.695312 82.324219 C 74.796875 82.210938 74.933594 82.125 75.101562 82.066406 C 75.269531 82.011719 75.457031 81.984375 75.65625 81.984375 C 75.730469 81.984375 75.820312 81.996094 75.929688 82.011719 C 76.042969 82.03125 76.15625 82.054688 76.28125 82.085938 C 76.40625 82.117188 76.519531 82.152344 76.628906 82.191406 C 76.738281 82.226562 76.824219 82.265625 76.894531 82.308594 L 76.992188 81.285156 C 76.765625 81.214844 76.53125 81.15625 76.296875 81.109375 C 76.058594 81.0625 75.804688 81.039062 75.535156 81.035156 C 75.21875 81.035156 74.921875 81.074219 74.652344 81.15625 C 74.378906 81.234375 74.140625 81.359375 73.9375 81.519531 C 73.734375 81.679688 73.574219 81.882812 73.460938 82.128906 C 73.347656 82.375 73.289062 82.664062 73.285156 82.996094 C 73.289062 83.25 73.339844 83.46875 73.441406 83.65625 C 73.539062 83.839844 73.667969 84 73.835938 84.136719 C 74 84.273438 74.175781 84.394531 74.371094 84.5 C 74.570312 84.601562 74.765625 84.703125 74.960938 84.792969 C 75.15625 84.886719 75.335938 84.984375 75.496094 85.082031 C 75.664062 85.179688 75.792969 85.289062 75.894531 85.414062 C 75.992188 85.53125 76.042969 85.675781 76.046875 85.839844 C 76.042969 86.011719 76.007812 86.15625 75.933594 86.273438 C 75.863281 86.390625 75.765625 86.484375 75.648438 86.554688 C 75.53125 86.625 75.402344 86.675781 75.261719 86.707031 C 75.121094 86.738281 74.980469 86.753906 74.847656 86.753906 C 74.730469 86.753906 74.589844 86.734375 74.421875 86.703125 C 74.253906 86.667969 74.078125 86.617188 73.898438 86.550781 C 73.714844 86.484375 73.542969 86.402344 73.386719 86.300781 L 73.324219 87.351562 "/>
<path style=" stroke:none;fill-rule:nonzero;fill:rgb(0%,0%,0%);fill-opacity:1;" d="M 82.023438 81.1875 L 80.339844 81.1875 L 80.339844 79.339844 L 79.167969 79.714844 L 79.167969 81.1875 L 77.730469 81.1875 L 77.730469 82.132812 L 79.167969 82.132812 L 79.167969 85.851562 C 79.167969 86.277344 79.246094 86.625 79.40625 86.898438 C 79.566406 87.171875 79.789062 87.375 80.082031 87.503906 C 80.375 87.636719 80.71875 87.699219 81.125 87.699219 C 81.316406 87.699219 81.496094 87.679688 81.667969 87.640625 C 81.839844 87.605469 81.992188 87.566406 82.125 87.527344 L 82.125 86.527344 C 82.039062 86.585938 81.925781 86.636719 81.796875 86.679688 C 81.664062 86.726562 81.507812 86.75 81.328125 86.753906 C 81.144531 86.753906 80.980469 86.707031 80.832031 86.621094 C 80.683594 86.535156 80.566406 86.40625 80.476562 86.238281 C 80.386719 86.070312 80.34375 85.863281 80.339844 85.617188 L 80.339844 82.132812 L 82.023438 82.132812 L 82.023438 81.1875 "/>
<path style=" stroke:none;fill-rule:nonzero;fill:rgb(0%,0%,0%);fill-opacity:1;" d="M 84.824219 78.441406 L 83.5 78.441406 L 83.5 79.761719 L 84.824219 79.761719 Z M 83.574219 87.550781 L 84.746094 87.550781 L 84.746094 81.1875 L 83.574219 81.1875 L 83.574219 87.550781 "/>
<path style=" stroke:none;fill-rule:nonzero;fill:rgb(0%,0%,0%);fill-opacity:1;" d="M 90.203125 81.1875 L 88.519531 81.1875 L 88.519531 79.339844 L 87.34375 79.714844 L 87.34375 81.1875 L 85.910156 81.1875 L 85.910156 82.132812 L 87.34375 82.132812 L 87.34375 85.851562 C 87.347656 86.277344 87.425781 86.625 87.585938 86.898438 C 87.742188 87.171875 87.96875 87.375 88.257812 87.503906 C 88.550781 87.636719 88.898438 87.699219 89.304688 87.699219 C 89.492188 87.699219 89.675781 87.679688 89.84375 87.640625 C 90.019531 87.605469 90.167969 87.566406 90.300781 87.527344 L 90.300781 86.527344 C 90.214844 86.585938 90.105469 86.636719 89.972656 86.679688 C 89.839844 86.726562 89.683594 86.75 89.503906 86.753906 C 89.324219 86.753906 89.15625 86.707031 89.007812 86.621094 C 88.859375 86.535156 88.742188 86.40625 88.65625 86.238281 C 88.566406 86.070312 88.519531 85.863281 88.519531 85.617188 L 88.519531 82.132812 L 90.203125 82.132812 L 90.203125 81.1875 "/>
<path style=" stroke:none;fill-rule:nonzero;fill:rgb(0%,0%,0%);fill-opacity:1;" d="M 97.230469 81.1875 L 96.058594 81.1875 L 96.058594 84.132812 C 96.058594 84.519531 96.019531 84.875 95.945312 85.195312 C 95.867188 85.515625 95.75 85.789062 95.59375 86.023438 C 95.433594 86.253906 95.230469 86.433594 94.988281 86.5625 C 94.746094 86.6875 94.457031 86.75 94.121094 86.753906 C 93.785156 86.730469 93.515625 86.636719 93.316406 86.464844 C 93.121094 86.292969 92.980469 86.042969 92.898438 85.714844 C 92.8125 85.386719 92.773438 84.976562 92.777344 84.480469 L 92.777344 81.1875 L 91.601562 81.1875 L 91.601562 84.96875 C 91.601562 85.539062 91.683594 86.027344 91.851562 86.4375 C 92.023438 86.84375 92.285156 87.15625 92.636719 87.371094 C 92.988281 87.589844 93.4375 87.699219 93.984375 87.699219 C 94.28125 87.699219 94.570312 87.652344 94.84375 87.5625 C 95.113281 87.46875 95.359375 87.335938 95.570312 87.160156 C 95.785156 86.988281 95.953125 86.78125 96.070312 86.539062 L 96.09375 86.539062 L 96.09375 87.550781 L 97.230469 87.550781 L 97.230469 81.1875 "/>
<path style=" stroke:none;fill-rule:nonzero;fill:rgb(0%,0%,0%);fill-opacity:1;" d="M 102.535156 81.1875 L 100.851562 81.1875 L 100.851562 79.339844 L 99.679688 79.714844 L 99.679688 81.1875 L 98.242188 81.1875 L 98.242188 82.132812 L 99.679688 82.132812 L 99.679688 85.851562 C 99.679688 86.277344 99.761719 86.625 99.917969 86.898438 C 100.074219 87.171875 100.300781 87.375 100.59375 87.503906 C 100.886719 87.636719 101.234375 87.699219 101.636719 87.699219 C 101.828125 87.699219 102.007812 87.679688 102.179688 87.640625 C 102.351562 87.605469 102.503906 87.566406 102.636719 87.527344 L 102.636719 86.527344 C 102.550781 86.585938 102.4375 86.636719 102.308594 86.679688 C 102.175781 86.726562 102.019531 86.75 101.839844 86.753906 C 101.65625 86.753906 101.492188 86.707031 101.34375 86.621094 C 101.195312 86.535156 101.074219 86.40625 100.988281 86.238281 C 100.898438 86.070312 100.855469 85.863281 100.851562 85.617188 L 100.851562 82.132812 L 102.535156 82.132812 L 102.535156 81.1875 "/>
<path style=" stroke:none;fill-rule:nonzero;fill:rgb(0%,0%,0%);fill-opacity:1;" d="M 108.167969 87.550781 L 109.339844 87.550781 L 109.339844 82.132812 L 111.023438 82.132812 L 111.023438 81.1875 L 109.339844 81.1875 L 109.339844 80.5 C 109.339844 80.28125 109.351562 80.082031 109.375 79.898438 C 109.402344 79.71875 109.453125 79.558594 109.53125 79.421875 C 109.605469 79.285156 109.722656 79.179688 109.871094 79.101562 C 110.023438 79.027344 110.222656 78.988281 110.476562 78.988281 C 110.578125 78.988281 110.679688 78.996094 110.78125 79.007812 C 110.882812 79.019531 110.96875 79.039062 111.035156 79.0625 L 111.085938 78.117188 C 110.96875 78.097656 110.847656 78.078125 110.71875 78.0625 C 110.589844 78.046875 110.449219 78.039062 110.300781 78.039062 C 109.871094 78.042969 109.515625 78.101562 109.238281 78.222656 C 108.957031 78.34375 108.738281 78.515625 108.582031 78.738281 C 108.425781 78.964844 108.320312 79.234375 108.257812 79.546875 C 108.195312 79.859375 108.164062 80.210938 108.167969 80.597656 L 108.167969 81.1875 L 106.667969 81.1875 L 106.667969 82.132812 L 108.167969 82.132812 L 108.167969 87.550781 "/>
<path style=" stroke:none;fill-rule:nonzero;fill:rgb(0%,0%,0%);fill-opacity:1;" d="M 117.816406 81.1875 L 116.644531 81.1875 L 116.644531 84.132812 C 116.644531 84.519531 116.605469 84.875 116.527344 85.195312 C 116.449219 85.515625 116.335938 85.789062 116.175781 86.023438 C 116.019531 86.253906 115.816406 86.433594 115.574219 86.5625 C 115.328125 86.6875 115.039062 86.75 114.707031 86.753906 C 114.367188 86.730469 114.101562 86.636719 113.902344 86.464844 C 113.703125 86.292969 113.566406 86.042969 113.484375 85.714844 C 113.398438 85.386719 113.359375 84.976562 113.359375 84.480469 L 113.359375 81.1875 L 112.1875 81.1875 L 112.1875 84.96875 C 112.1875 85.539062 112.269531 86.027344 112.4375 86.4375 C 112.609375 86.84375 112.867188 87.15625 113.222656 87.371094 C 113.570312 87.589844 114.023438 87.699219 114.570312 87.699219 C 114.867188 87.699219 115.15625 87.652344 115.429688 87.5625 C 115.699219 87.46875 115.945312 87.335938 116.15625 87.160156 C 116.371094 86.988281 116.535156 86.78125 116.65625 86.539062 L 116.679688 86.539062 L 116.679688 87.550781 L 117.816406 87.550781 Z M 115.445312 80.210938 L 116.617188 80.210938 L 116.617188 78.964844 L 115.445312 78.964844 Z M 113.398438 80.210938 L 114.570312 80.210938 L 114.570312 78.964844 L 113.398438 78.964844 L 113.398438 80.210938 "/>
<path style=" stroke:none;fill-rule:nonzero;fill:rgb(0%,0%,0%);fill-opacity:1;" d="M 119.738281 87.550781 L 120.910156 87.550781 L 120.910156 84.65625 C 120.914062 84.121094 120.988281 83.660156 121.128906 83.273438 C 121.273438 82.886719 121.472656 82.585938 121.730469 82.378906 C 121.988281 82.167969 122.296875 82.0625 122.648438 82.058594 C 122.75 82.058594 122.855469 82.066406 122.96875 82.082031 C 123.078125 82.097656 123.1875 82.128906 123.296875 82.171875 L 123.296875 81.125 C 123.214844 81.105469 123.136719 81.09375 123.0625 81.078125 C 122.988281 81.066406 122.90625 81.054688 122.820312 81.046875 C 122.738281 81.039062 122.636719 81.035156 122.523438 81.035156 C 122.296875 81.039062 122.074219 81.085938 121.859375 81.183594 C 121.648438 81.277344 121.453125 81.414062 121.28125 81.582031 C 121.109375 81.753906 120.96875 81.949219 120.863281 82.171875 L 120.839844 82.171875 L 120.839844 81.1875 L 119.738281 81.1875 L 119.738281 87.550781 "/>
<path style=" stroke:none;fill-rule:nonzero;fill:rgb(0%,0%,0%);fill-opacity:1;" d="M 129.839844 87.550781 L 131.085938 87.550781 L 131.085938 79.9375 L 133.792969 79.9375 L 133.792969 78.839844 L 127.128906 78.839844 L 127.128906 79.9375 L 129.839844 79.9375 L 129.839844 87.550781 "/>
<path style=" stroke:none;fill-rule:nonzero;fill:rgb(0%,0%,0%);fill-opacity:1;" d="M 134.757812 83.757812 C 134.777344 83.546875 134.824219 83.339844 134.898438 83.132812 C 134.972656 82.925781 135.074219 82.734375 135.214844 82.5625 C 135.351562 82.386719 135.519531 82.25 135.726562 82.144531 C 135.933594 82.039062 136.179688 81.988281 136.464844 81.984375 C 136.71875 81.988281 136.945312 82.03125 137.140625 82.125 C 137.339844 82.214844 137.503906 82.34375 137.636719 82.503906 C 137.773438 82.667969 137.875 82.855469 137.945312 83.066406 C 138.015625 83.28125 138.050781 83.511719 138.050781 83.757812 Z M 138.8125 86.117188 C 138.738281 86.175781 138.632812 86.242188 138.492188 86.316406 C 138.355469 86.386719 138.195312 86.457031 138.015625 86.523438 C 137.835938 86.589844 137.644531 86.644531 137.445312 86.683594 C 137.246094 86.730469 137.050781 86.75 136.851562 86.753906 C 136.570312 86.75 136.308594 86.699219 136.058594 86.597656 C 135.808594 86.496094 135.582031 86.351562 135.390625 86.164062 C 135.195312 85.976562 135.039062 85.753906 134.925781 85.492188 C 134.816406 85.234375 134.757812 84.945312 134.757812 84.628906 L 139.300781 84.628906 C 139.300781 84.117188 139.253906 83.640625 139.160156 83.207031 C 139.066406 82.769531 138.90625 82.390625 138.691406 82.066406 C 138.472656 81.742188 138.1875 81.488281 137.824219 81.308594 C 137.464844 81.128906 137.019531 81.039062 136.492188 81.035156 C 136.039062 81.039062 135.632812 81.117188 135.265625 81.273438 C 134.902344 81.429688 134.589844 81.652344 134.324219 81.9375 C 134.0625 82.226562 133.863281 82.566406 133.722656 82.957031 C 133.582031 83.347656 133.511719 83.78125 133.507812 84.253906 C 133.507812 84.777344 133.574219 85.246094 133.707031 85.667969 C 133.835938 86.089844 134.039062 86.453125 134.308594 86.753906 C 134.578125 87.058594 134.921875 87.289062 135.335938 87.453125 C 135.75 87.617188 136.238281 87.699219 136.804688 87.699219 C 137.152344 87.699219 137.445312 87.675781 137.691406 87.628906 C 137.933594 87.582031 138.148438 87.53125 138.324219 87.46875 C 138.503906 87.40625 138.664062 87.34375 138.8125 87.289062 L 138.8125 86.117188 "/>
<path style=" stroke:none;fill-rule:nonzero;fill:rgb(0%,0%,0%);fill-opacity:1;" d="M 144.941406 81.285156 C 144.828125 81.238281 144.691406 81.199219 144.527344 81.160156 C 144.367188 81.121094 144.199219 81.09375 144.023438 81.070312 C 143.847656 81.046875 143.679688 81.035156 143.519531 81.035156 C 143.03125 81.039062 142.585938 81.121094 142.191406 81.285156 C 141.792969 81.449219 141.453125 81.679688 141.167969 81.976562 C 140.882812 82.273438 140.660156 82.625 140.507812 83.03125 C 140.355469 83.4375 140.277344 83.882812 140.273438 84.367188 C 140.277344 84.824219 140.355469 85.257812 140.511719 85.65625 C 140.667969 86.058594 140.886719 86.410156 141.175781 86.714844 C 141.464844 87.023438 141.804688 87.261719 142.199219 87.4375 C 142.597656 87.609375 143.035156 87.695312 143.519531 87.699219 C 143.664062 87.699219 143.816406 87.695312 143.980469 87.683594 C 144.148438 87.667969 144.316406 87.644531 144.488281 87.605469 C 144.660156 87.566406 144.828125 87.511719 144.992188 87.4375 L 144.90625 86.390625 C 144.78125 86.46875 144.648438 86.535156 144.503906 86.589844 C 144.363281 86.644531 144.214844 86.683594 144.070312 86.710938 C 143.921875 86.738281 143.78125 86.753906 143.644531 86.753906 C 143.34375 86.75 143.074219 86.703125 142.84375 86.613281 C 142.613281 86.523438 142.414062 86.398438 142.242188 86.242188 C 142.078125 86.082031 141.941406 85.902344 141.835938 85.699219 C 141.726562 85.492188 141.648438 85.28125 141.597656 85.050781 C 141.546875 84.824219 141.523438 84.597656 141.523438 84.367188 C 141.523438 84.0625 141.566406 83.765625 141.65625 83.484375 C 141.746094 83.203125 141.878906 82.949219 142.054688 82.722656 C 142.230469 82.496094 142.441406 82.316406 142.695312 82.1875 C 142.949219 82.054688 143.238281 81.988281 143.570312 81.984375 C 143.757812 81.984375 143.960938 82.003906 144.175781 82.050781 C 144.394531 82.097656 144.613281 82.164062 144.84375 82.257812 L 144.941406 81.285156 "/>
<path style=" stroke:none;fill-rule:nonzero;fill:rgb(0%,0%,0%);fill-opacity:1;" d="M 146.265625 87.550781 L 147.441406 87.550781 L 147.441406 84.605469 C 147.441406 84.214844 147.476562 83.863281 147.554688 83.542969 C 147.632812 83.222656 147.746094 82.949219 147.90625 82.714844 C 148.0625 82.480469 148.265625 82.300781 148.507812 82.175781 C 148.753906 82.050781 149.039062 81.988281 149.375 81.984375 C 149.714844 82.003906 149.980469 82.097656 150.179688 82.273438 C 150.378906 82.441406 150.515625 82.691406 150.601562 83.019531 C 150.683594 83.347656 150.722656 83.761719 150.722656 84.253906 L 150.722656 87.550781 L 151.894531 87.550781 L 151.894531 83.769531 C 151.898438 83.195312 151.8125 82.707031 151.644531 82.300781 C 151.476562 81.894531 151.214844 81.582031 150.863281 81.363281 C 150.511719 81.148438 150.0625 81.039062 149.511719 81.035156 C 149.066406 81.039062 148.667969 81.128906 148.316406 81.3125 C 147.964844 81.496094 147.679688 81.757812 147.464844 82.097656 L 147.441406 82.097656 L 147.441406 78.191406 L 146.265625 78.191406 L 146.265625 87.550781 "/>
<path style=" stroke:none;fill-rule:nonzero;fill:rgb(0%,0%,0%);fill-opacity:1;" d="M 153.820312 87.550781 L 154.992188 87.550781 L 154.992188 84.605469 C 154.992188 84.214844 155.03125 83.863281 155.105469 83.542969 C 155.183594 83.222656 155.300781 82.949219 155.457031 82.714844 C 155.617188 82.480469 155.816406 82.300781 156.0625 82.175781 C 156.304688 82.050781 156.59375 81.988281 156.925781 81.984375 C 157.265625 82.003906 157.535156 82.097656 157.730469 82.273438 C 157.929688 82.441406 158.070312 82.691406 158.152344 83.019531 C 158.238281 83.347656 158.277344 83.761719 158.273438 84.253906 L 158.273438 87.550781 L 159.445312 87.550781 L 159.445312 83.769531 C 159.449219 83.195312 159.363281 82.707031 159.195312 82.300781 C 159.027344 81.894531 158.765625 81.582031 158.414062 81.363281 C 158.0625 81.148438 157.613281 81.039062 157.0625 81.035156 C 156.765625 81.035156 156.480469 81.082031 156.207031 81.175781 C 155.933594 81.269531 155.691406 81.398438 155.480469 81.574219 C 155.265625 81.746094 155.097656 81.953125 154.980469 82.195312 L 154.953125 82.195312 L 154.953125 81.1875 L 153.820312 81.1875 L 153.820312 87.550781 "/>
<path style=" stroke:none;fill-rule:nonzero;fill:rgb(0%,0%,0%);fill-opacity:1;" d="M 162.195312 84.367188 C 162.195312 84.0625 162.242188 83.765625 162.328125 83.484375 C 162.421875 83.203125 162.550781 82.949219 162.722656 82.722656 C 162.890625 82.496094 163.101562 82.316406 163.347656 82.1875 C 163.59375 82.054688 163.875 81.988281 164.191406 81.984375 C 164.503906 81.988281 164.78125 82.054688 165.027344 82.1875 C 165.273438 82.316406 165.480469 82.496094 165.652344 82.722656 C 165.820312 82.949219 165.953125 83.203125 166.039062 83.484375 C 166.128906 83.765625 166.175781 84.0625 166.175781 84.367188 C 166.175781 84.597656 166.152344 84.824219 166.101562 85.050781 C 166.050781 85.28125 165.976562 85.492188 165.871094 85.699219 C 165.769531 85.902344 165.640625 86.082031 165.484375 86.242188 C 165.324219 86.398438 165.140625 86.523438 164.925781 86.613281 C 164.710938 86.703125 164.46875 86.75 164.191406 86.753906 C 163.914062 86.75 163.667969 86.703125 163.449219 86.613281 C 163.234375 86.523438 163.046875 86.398438 162.890625 86.242188 C 162.730469 86.082031 162.601562 85.902344 162.5 85.699219 C 162.398438 85.492188 162.320312 85.28125 162.269531 85.050781 C 162.21875 84.824219 162.195312 84.597656 162.195312 84.367188 Z M 160.945312 84.367188 C 160.949219 84.824219 161.027344 85.257812 161.183594 85.65625 C 161.339844 86.058594 161.5625 86.410156 161.851562 86.714844 C 162.136719 87.023438 162.476562 87.261719 162.871094 87.4375 C 163.269531 87.609375 163.710938 87.695312 164.191406 87.699219 C 164.671875 87.695312 165.109375 87.609375 165.503906 87.4375 C 165.898438 87.261719 166.238281 87.023438 166.523438 86.714844 C 166.8125 86.410156 167.03125 86.058594 167.1875 85.65625 C 167.34375 85.257812 167.421875 84.824219 167.425781 84.367188 C 167.421875 83.882812 167.347656 83.4375 167.191406 83.03125 C 167.035156 82.625 166.820312 82.273438 166.535156 81.976562 C 166.25 81.679688 165.90625 81.449219 165.511719 81.285156 C 165.117188 81.121094 164.675781 81.039062 164.191406 81.035156 C 163.703125 81.039062 163.261719 81.121094 162.863281 81.285156 C 162.464844 81.449219 162.125 81.679688 161.839844 81.976562 C 161.554688 82.273438 161.335938 82.625 161.179688 83.03125 C 161.027344 83.4375 160.949219 83.882812 160.945312 84.367188 "/>
<path style=" stroke:none;fill-rule:nonzero;fill:rgb(0%,0%,0%);fill-opacity:1;" d="M 169.074219 78.191406 L 170.246094 78.191406 L 170.246094 87.550781 L 169.074219 87.550781 Z M 169.074219 78.191406 "/>
<path style=" stroke:none;fill-rule:nonzero;fill:rgb(0%,0%,0%);fill-opacity:1;" d="M 173.144531 84.367188 C 173.144531 84.0625 173.191406 83.765625 173.277344 83.484375 C 173.367188 83.203125 173.496094 82.949219 173.671875 82.722656 C 173.839844 82.496094 174.050781 82.316406 174.296875 82.1875 C 174.542969 82.054688 174.824219 81.988281 175.140625 81.984375 C 175.453125 81.988281 175.730469 82.054688 175.976562 82.1875 C 176.222656 82.316406 176.429688 82.496094 176.601562 82.722656 C 176.773438 82.949219 176.902344 83.203125 176.988281 83.484375 C 177.078125 83.765625 177.125 84.0625 177.125 84.367188 C 177.125 84.597656 177.101562 84.824219 177.050781 85.050781 C 177 85.28125 176.925781 85.492188 176.820312 85.699219 C 176.71875 85.902344 176.589844 86.082031 176.433594 86.242188 C 176.273438 86.398438 176.089844 86.523438 175.875 86.613281 C 175.660156 86.703125 175.414062 86.75 175.140625 86.753906 C 174.863281 86.75 174.617188 86.703125 174.398438 86.613281 C 174.183594 86.523438 173.996094 86.398438 173.839844 86.242188 C 173.679688 86.082031 173.550781 85.902344 173.445312 85.699219 C 173.34375 85.492188 173.269531 85.28125 173.21875 85.050781 C 173.167969 84.824219 173.144531 84.597656 173.144531 84.367188 Z M 171.894531 84.367188 C 171.898438 84.824219 171.976562 85.257812 172.132812 85.65625 C 172.289062 86.058594 172.507812 86.410156 172.796875 86.714844 C 173.085938 87.023438 173.425781 87.261719 173.820312 87.4375 C 174.21875 87.609375 174.65625 87.695312 175.140625 87.699219 C 175.617188 87.695312 176.058594 87.609375 176.449219 87.4375 C 176.847656 87.261719 177.1875 87.023438 177.472656 86.714844 C 177.757812 86.410156 177.980469 86.058594 178.136719 85.65625 C 178.292969 85.257812 178.371094 84.824219 178.371094 84.367188 C 178.371094 83.882812 178.292969 83.4375 178.140625 83.03125 C 177.984375 82.625 177.769531 82.273438 177.484375 81.976562 C 177.195312 81.679688 176.855469 81.449219 176.460938 81.285156 C 176.066406 81.121094 175.625 81.039062 175.140625 81.035156 C 174.652344 81.039062 174.207031 81.121094 173.8125 81.285156 C 173.414062 81.449219 173.074219 81.679688 172.789062 81.976562 C 172.503906 82.273438 172.28125 82.625 172.128906 83.03125 C 171.976562 83.4375 171.898438 83.882812 171.894531 84.367188 "/>
<path style=" stroke:none;fill-rule:nonzero;fill:rgb(0%,0%,0%);fill-opacity:1;" d="M 182.46875 86.601562 C 182.195312 86.601562 181.945312 86.539062 181.726562 86.417969 C 181.507812 86.300781 181.324219 86.136719 181.171875 85.929688 C 181.015625 85.71875 180.898438 85.480469 180.820312 85.210938 C 180.738281 84.941406 180.695312 84.65625 180.695312 84.355469 C 180.695312 84.136719 180.71875 83.914062 180.765625 83.691406 C 180.8125 83.46875 180.882812 83.253906 180.980469 83.050781 C 181.070312 82.847656 181.191406 82.667969 181.332031 82.507812 C 181.472656 82.347656 181.640625 82.21875 181.828125 82.125 C 182.019531 82.035156 182.230469 81.988281 182.46875 81.984375 C 182.78125 81.988281 183.054688 82.054688 183.285156 82.183594 C 183.519531 82.3125 183.710938 82.488281 183.867188 82.714844 C 184.019531 82.945312 184.136719 83.207031 184.214844 83.5 C 184.289062 83.796875 184.328125 84.109375 184.328125 84.441406 C 184.328125 84.742188 184.28125 85.019531 184.191406 85.28125 C 184.101562 85.542969 183.972656 85.769531 183.808594 85.96875 C 183.644531 86.164062 183.449219 86.320312 183.222656 86.429688 C 182.992188 86.542969 182.746094 86.601562 182.46875 86.601562 Z M 185.5 81.1875 L 184.414062 81.1875 L 184.414062 82.132812 L 184.390625 82.132812 C 184.277344 81.902344 184.125 81.707031 183.941406 81.542969 C 183.757812 81.382812 183.527344 81.253906 183.257812 81.167969 C 182.988281 81.082031 182.664062 81.035156 182.292969 81.035156 C 181.90625 81.039062 181.566406 81.101562 181.261719 81.230469 C 180.953125 81.359375 180.6875 81.53125 180.460938 81.753906 C 180.234375 81.976562 180.046875 82.234375 179.894531 82.519531 C 179.746094 82.808594 179.632812 83.113281 179.558594 83.4375 C 179.484375 83.761719 179.445312 84.089844 179.445312 84.417969 C 179.445312 84.835938 179.503906 85.226562 179.617188 85.601562 C 179.730469 85.976562 179.898438 86.3125 180.125 86.601562 C 180.351562 86.894531 180.632812 87.125 180.976562 87.292969 C 181.316406 87.460938 181.714844 87.546875 182.167969 87.550781 C 182.441406 87.550781 182.710938 87.515625 182.972656 87.441406 C 183.234375 87.371094 183.480469 87.257812 183.707031 87.113281 C 183.9375 86.96875 184.132812 86.785156 184.304688 86.566406 L 184.328125 86.566406 L 184.328125 87.1875 C 184.324219 87.640625 184.25 88.027344 184.089844 88.355469 C 183.933594 88.679688 183.710938 88.929688 183.417969 89.105469 C 183.121094 89.28125 182.769531 89.371094 182.355469 89.371094 C 182.140625 89.371094 181.945312 89.363281 181.761719 89.339844 C 181.574219 89.320312 181.398438 89.285156 181.222656 89.238281 C 181.046875 89.195312 180.863281 89.136719 180.675781 89.0625 C 180.488281 88.988281 180.28125 88.902344 180.058594 88.800781 L 179.933594 89.882812 C 180.273438 90 180.570312 90.089844 180.832031 90.152344 C 181.089844 90.21875 181.332031 90.261719 181.554688 90.285156 C 181.777344 90.3125 181.996094 90.320312 182.21875 90.320312 C 182.976562 90.320312 183.601562 90.199219 184.085938 89.960938 C 184.570312 89.722656 184.925781 89.378906 185.15625 88.925781 C 185.390625 88.472656 185.503906 87.921875 185.5 87.277344 L 185.5 81.1875 "/>
<path style=" stroke:none;fill-rule:nonzero;fill:rgb(0%,0%,0%);fill-opacity:1;" d="M 188.820312 78.441406 L 187.5 78.441406 L 187.5 79.761719 L 188.820312 79.761719 Z M 187.574219 87.550781 L 188.746094 87.550781 L 188.746094 81.1875 L 187.574219 81.1875 L 187.574219 87.550781 "/>
<path style=" stroke:none;fill-rule:nonzero;fill:rgb(0%,0%,0%);fill-opacity:1;" d="M 191.644531 83.757812 C 191.664062 83.546875 191.714844 83.339844 191.789062 83.132812 C 191.859375 82.925781 191.964844 82.734375 192.101562 82.5625 C 192.238281 82.386719 192.40625 82.25 192.613281 82.144531 C 192.820312 82.039062 193.066406 81.988281 193.355469 81.984375 C 193.609375 81.988281 193.832031 82.03125 194.027344 82.125 C 194.226562 82.214844 194.390625 82.34375 194.527344 82.503906 C 194.660156 82.667969 194.765625 82.855469 194.832031 83.066406 C 194.902344 83.28125 194.941406 83.511719 194.941406 83.757812 Z M 195.699219 86.117188 C 195.628906 86.175781 195.523438 86.242188 195.382812 86.316406 C 195.242188 86.386719 195.085938 86.457031 194.902344 86.523438 C 194.722656 86.589844 194.53125 86.644531 194.335938 86.683594 C 194.132812 86.730469 193.9375 86.75 193.742188 86.753906 C 193.460938 86.75 193.195312 86.699219 192.945312 86.597656 C 192.695312 86.496094 192.46875 86.351562 192.277344 86.164062 C 192.082031 85.976562 191.925781 85.753906 191.816406 85.492188 C 191.703125 85.234375 191.648438 84.945312 191.644531 84.628906 L 196.1875 84.628906 C 196.191406 84.117188 196.140625 83.640625 196.046875 83.207031 C 195.953125 82.769531 195.796875 82.390625 195.578125 82.066406 C 195.363281 81.742188 195.074219 81.488281 194.710938 81.308594 C 194.351562 81.128906 193.90625 81.039062 193.378906 81.035156 C 192.929688 81.039062 192.519531 81.117188 192.152344 81.273438 C 191.789062 81.429688 191.476562 81.652344 191.214844 81.9375 C 190.953125 82.226562 190.75 82.566406 190.609375 82.957031 C 190.46875 83.347656 190.398438 83.78125 190.398438 84.253906 C 190.398438 84.777344 190.460938 85.246094 190.59375 85.667969 C 190.726562 86.089844 190.925781 86.453125 191.195312 86.753906 C 191.46875 87.058594 191.808594 87.289062 192.222656 87.453125 C 192.640625 87.617188 193.128906 87.699219 193.691406 87.699219 C 194.039062 87.699219 194.335938 87.675781 194.578125 87.628906 C 194.824219 87.582031 195.035156 87.53125 195.214844 87.46875 C 195.390625 87.40625 195.554688 87.34375 195.699219 87.289062 L 195.699219 86.117188 "/>
</g>
</g>
</defs>
<g id="surface1">
<g clip-path="url(#clip1)" clip-rule="nonzero">
<use xlink:href="#surface5"/>
</g>
</g>
</svg>
