<svg id="Layer_1" enable-background="new 0 0 512 512" height="512" viewBox="0 0 512 512" width="512" xmlns="http://www.w3.org/2000/svg"><path d="m407 40v-40h-40v40h-367v40h20v268c0 33.084 26.916 60 60 60h165v34c0 15.342 5.709 31.822 15.664 45.215 11.708 15.751 27.868 24.785 44.336 24.785h127c33.084 0 60-26.916 60-60v-372h20v-40zm45 412c0 11.028-8.972 20-20 20h-127c-8.079 0-20-15.803-20-30v-34h127v-40h-332c-11.028 0-20-8.972-20-20v-268h392z"/><path d="m256 310c35.841 0 65-29.952 65-66 0-9.195-2.734-25.911-26.374-58.134-11.739-16.002-23.347-28.791-23.835-29.328l-14.791-16.252-14.791 16.252c-.488.537-12.096 13.326-23.835 29.328-23.64 32.223-26.374 47.939-26.374 57.134 0 36.048 29.159 67 65 67zm-6.349-100.508c2.14-2.916 4.288-5.727 6.35-8.353 1.997 2.544 4.076 5.264 6.157 8.093 18.268 24.835 18.832 34.548 18.842 34.768 0 13.992-11.215 26-25 26s-25-12.008-25-26c.002-.086.43-9.678 18.651-34.508z"/></svg>